<svg width="76" height="68" viewBox="0 0 76 68" fill="none" xmlns="http://www.w3.org/2000/svg">
<g clip-path="url(#clip0)">
<path d="M64.06 21.92C70.113 21.92 75.02 17.013 75.02 10.96C75.02 4.90696 70.113 0 64.06 0C58.007 0 53.1 4.90696 53.1 10.96C53.1 17.013 58.007 21.92 64.06 21.92Z" fill="#FF9B44"/>
<path d="M64.06 27.92C59.85 27.92 56 26.38 53.04 23.83V45.26H39.67C33.21 45.26 27.97 40.02 27.97 33.56C27.97 27.1 33.21 21.86 39.67 21.86H51.06C48.58 18.91 47.09 15.11 47.09 10.96C47.09 6.78 48.61 2.96 51.11 0H33.56C15.02 0 0 15.02 0 33.56C0 52.09 15.02 67.12 33.56 67.12H50.33L53.1 65.32L55.87 67.12H74.76H74.88V24.01C71.95 26.45 68.17 27.92 64.06 27.92Z" fill="#71C9BA"/>
</g>
<defs>
<clipPath id="clip0">
<rect width="75.01" height="67.11" fill="white"/>
</clipPath>
</defs>
</svg>
