<svg width="76" height="68" fill="none" xmlns="http://www.w3.org/2000/svg"><g clip-path="url(#clip0)"><path d="M64.06 21.92c6.053 0 10.96-4.907 10.96-10.96C75.02 4.907 70.113 0 64.06 0 58.007 0 53.1 4.907 53.1 10.96c0 6.053 4.907 10.96 10.96 10.96z" fill="#FF9B44"/><path d="M64.06 27.92c-4.21 0-8.06-1.54-11.02-4.09v21.43H39.67c-6.46 0-11.7-5.24-11.7-11.7 0-6.46 5.24-11.7 11.7-11.7h11.39a16.875 16.875 0 01-3.97-10.9c0-4.18 1.52-8 4.02-10.96H33.56C15.02 0 0 15.02 0 33.56c0 18.53 15.02 33.56 33.56 33.56h16.77l2.77-1.8 2.77 1.8h19.01V24.01a16.867 16.867 0 01-10.82 3.91z" fill="#71C9BA"/></g><defs><clipPath id="clip0"><path fill="#fff" d="M0 0h75.01v67.11H0z"/></clipPath></defs></svg>