<svg width="901" height="21" fill="none" xmlns="http://www.w3.org/2000/svg"><path d="M1 10.07v9.069l7.843-4.557 7.886-4.513-7.886-4.556L1 1v9.07zm46.486 0v9.069l7.842-4.557 7.887-4.513-7.887-4.556L47.486 1v9.07zm46.486 0v9.069l7.842-4.557 7.843-4.513-7.843-4.556L93.972 1v9.07zm46.442 0v9.069l7.886-4.557 7.842-4.513-7.842-4.556L140.414 1v9.07zm46.485 0v9.069l7.887-4.557 7.842-4.513-7.842-4.556L186.899 1v9.07zm46.486 0v9.069l7.843-4.557 7.886-4.513-7.886-4.556L233.385 1v9.07zm46.486 0v9.069l7.842-4.557 7.843-4.513-7.843-4.556L279.871 1v9.07zm46.442 0v9.069l7.886-4.557 7.843-4.513-7.843-4.556L326.313 1v9.07zm46.485 0v9.069l7.887-4.557 7.842-4.513-7.842-4.556L372.798 1v9.07zm46.486 0v9.069l7.843-4.557 7.886-4.513-7.886-4.556L419.284 1v9.07zm46.486 0v9.069l7.843-4.557 7.886-4.513-7.886-4.556L465.77 1v9.07zm46.442 0v9.069l7.886-4.557 7.843-4.513-7.843-4.556L512.212 1v9.07zm46.486 0v9.069l7.886-4.557 7.843-4.513-7.843-4.556L558.698 1v9.07zm46.486 0v9.069l7.842-4.557 7.887-4.513-7.887-4.556L605.184 1v9.07zm46.485 0v9.069l7.843-4.557 7.842-4.513-7.842-4.556L651.669 1v9.07zm46.442 0v9.069l7.887-4.557 7.842-4.513-7.842-4.556L698.111 1v9.07zm46.486 0v9.069l7.886-4.557 7.843-4.513-7.843-4.556L744.597 1v9.07zm46.486 0v9.069l7.842-4.557 7.887-4.513-7.887-4.556L791.083 1v9.07zm46.486 0v9.069l7.842-4.557 7.886-4.513-7.886-4.556L837.569 1v9.07zm46.441 0v9.069l7.887-4.557 7.842-4.513-7.842-4.556L884.01 1v9.07z" stroke="#71C9BA" stroke-miterlimit="10"/></svg>