<svg width="529" height="62" fill="none" xmlns="http://www.w3.org/2000/svg"><path d="M1 11.65v10.649l7.843-5.35 7.886-5.3L8.843 6.3 1 .999v10.65zm46.486 0v10.649l7.842-5.35 7.887-5.3-7.887-5.35-7.842-5.3v10.65zm46.486 0v10.649l7.842-5.35 7.843-5.3-7.843-5.35-7.842-5.3v10.65zm46.442 0v10.649l7.886-5.35 7.842-5.3L148.3 6.3 140.414 1v10.65zm46.485 0v10.649l7.887-5.35 7.842-5.3-7.842-5.35-7.887-5.3v10.65zm46.486 0v10.649l7.843-5.35 7.886-5.3-7.886-5.35-7.843-5.3v10.65zm46.486 0v10.649l7.842-5.35 7.843-5.3-7.843-5.35-7.842-5.3v10.65zm46.442 0v10.649l7.886-5.35 7.843-5.3-7.843-5.35-7.886-5.3v10.65zm46.485 0v10.649l7.887-5.35 7.842-5.3-7.842-5.35-7.887-5.3v10.65zm46.486 0v10.649l7.843-5.35 7.886-5.3-7.886-5.35-7.843-5.3v10.65zm46.486 0v10.649l7.843-5.35 7.886-5.3-7.886-5.35-7.843-5.3v10.65zm46.442 0v10.649l7.886-5.35 7.843-5.3-7.843-5.35-7.886-5.3v10.65zM1 49.65v10.649l7.843-5.35 7.886-5.3-7.886-5.35L1 38.999v10.65zm46.486 0v10.649l7.842-5.35 7.887-5.3-7.887-5.35-7.842-5.3v10.65zm46.486 0v10.649l7.842-5.35 7.843-5.3-7.843-5.35-7.842-5.3v10.65zm46.442 0v10.649l7.886-5.35 7.842-5.3-7.842-5.35-7.886-5.3v10.65zm46.485 0v10.649l7.887-5.35 7.842-5.3-7.842-5.35-7.887-5.3v10.65zm46.486 0v10.649l7.843-5.35 7.886-5.3-7.886-5.35-7.843-5.3v10.65zm46.486 0v10.649l7.842-5.35 7.843-5.3-7.843-5.35-7.842-5.3v10.65zm46.442 0v10.649l7.886-5.35 7.843-5.3-7.843-5.35-7.886-5.3v10.65zm46.485 0v10.649l7.887-5.35 7.842-5.3-7.842-5.35-7.887-5.3v10.65zm46.486 0v10.649l7.843-5.35 7.886-5.3-7.886-5.35-7.843-5.3v10.65zm46.486 0v10.649l7.843-5.35 7.886-5.3-7.886-5.35-7.843-5.3v10.65zm46.442 0v10.649l7.886-5.35 7.843-5.3-7.843-5.35-7.886-5.3v10.65z" stroke="#71C9BA" stroke-miterlimit="10"/></svg>