<svg width="301" height="557" fill="none" xmlns="http://www.w3.org/2000/svg"><path d="M133.623 336.253a3.85 3.85 0 01-.395-.887 3.92 3.92 0 01-.151-.702l-.231-1.057.232-.08c.529-4.303 6.618-9.938 15.521-13.874 10.746-4.72 21.595-5.171 24.541-1.095l.32-.125.313 1.509.048.225c.056.381.065.769.026 1.153-.409 4.327-6.532 10.038-15.517 13.986-10.946 4.869-22.001 5.257-24.707.947z" fill="#FDA212"/><path d="M148.253 318.037c-10.946 4.808-17.636 12.232-14.946 16.569 2.69 4.338 13.695 3.932 24.677-.854 10.981-4.787 17.633-12.246 14.957-16.587-2.676-4.341-13.746-3.95-24.688.872z" fill="#FDB73E"/><path d="M157.195 332.566a39.447 39.447 0 01-13.354 3.429c-4.122.204-7.029-.693-8.201-2.5a3.803 3.803 0 01-.308-3.28c1.128-3.674 6.407-8.047 13.454-11.135a39.489 39.489 0 0113.362-3.423c4.122-.204 7.015.697 8.192 2.495a3.844 3.844 0 01.308 3.28 8.177 8.177 0 01-.962 2c-2.053 3.201-6.69 6.592-12.491 9.134zm-21.161-2.197a3.145 3.145 0 00.234 2.673c.993 1.577 3.729 2.371 7.521 2.188a38.683 38.683 0 0013.05-3.392c5.621-2.467 10.192-5.849 12.171-8.887a7.016 7.016 0 00.876-1.795 3.145 3.145 0 00-.226-2.668c-.992-1.577-3.738-2.377-7.52-2.188a38.733 38.733 0 00-13.101 3.373c-5.616 2.459-10.196 5.835-12.18 8.882a7.338 7.338 0 00-.825 1.814zm-2.411 172.161a3.863 3.863 0 01-.395-.886 3.931 3.931 0 01-.151-.703l-.231-1.056.232-.081c.529-4.303 6.618-9.937 15.521-13.873 10.746-4.721 21.595-5.172 24.541-1.096l.32-.125.313 1.509.048.225c.056.382.065.769.026 1.153-.409 4.327-6.532 10.038-15.517 13.987-10.946 4.869-22.001 5.257-24.707.946z" fill="#FDA212"/><path d="M148.253 484.315c-10.946 4.808-17.636 12.231-14.946 16.569 2.69 4.337 13.695 3.931 24.677-.855 10.981-4.786 17.633-12.245 14.957-16.587-2.676-4.341-13.746-3.949-24.688.873z" fill="#FDB73E"/><path d="M157.195 498.844a39.47 39.47 0 01-13.354 3.428c-4.122.205-7.029-.693-8.201-2.5a3.805 3.805 0 01-.308-3.28c1.128-3.674 6.407-8.047 13.454-11.134a39.49 39.49 0 0113.362-3.424c4.122-.204 7.015.697 8.192 2.495a3.844 3.844 0 01.308 3.28 8.166 8.166 0 01-.962 2.001c-2.053 3.201-6.69 6.591-12.491 9.134zm-21.161-2.198a3.147 3.147 0 00.234 2.673c.993 1.577 3.729 2.372 7.521 2.188a38.658 38.658 0 0013.05-3.391c5.621-2.468 10.192-5.85 12.171-8.887a7.038 7.038 0 00.876-1.796 3.145 3.145 0 00-.226-2.667c-.992-1.578-3.738-2.378-7.52-2.189a38.758 38.758 0 00-13.101 3.374c-5.616 2.458-10.196 5.835-12.18 8.881a7.354 7.354 0 00-.825 1.814zM53.007 62.358a5.51 5.51 0 01.47-1.3c.154-.307.334-.599.54-.872l.808-1.314.317.147c4.8-3.898 16.626-3.666 29.666 1.093 15.708 5.776 27.301 16.04 26.297 23.14l.452.189-1.171 1.86-.173.278a6.69 6.69 0 01-1.113 1.21c-4.699 4.041-16.637 3.855-29.772-.972-16.06-5.821-27.803-16.354-26.32-23.459z" fill="#FDA212"/><path d="M86.049 58.111c-16-5.883-30.214-4.872-31.739 2.245-1.525 7.116 10.183 17.58 26.199 23.522 16.015 5.94 30.224 4.854 31.767-2.252 1.544-7.107-10.217-17.65-26.227-23.515z" fill="#FDB73E"/><path d="M80.87 81.88a56.275 56.275 0 01-17.11-9.682c-4.437-3.866-6.536-7.662-5.953-10.678a5.42 5.42 0 012.926-3.675c4.791-2.659 14.54-1.932 24.832 1.864a56.315 56.315 0 0117.114 9.696c4.437 3.865 6.518 7.65 5.949 10.663a5.483 5.483 0 01-2.926 3.674 11.65 11.65 0 01-2.966 1.104c-5.275 1.259-13.392.157-21.866-2.967zM61.302 58.697a4.481 4.481 0 00-2.402 2.977c-.54 2.603 1.486 6.125 5.563 9.685a55.142 55.142 0 0016.762 9.42c8.215 3.023 16.255 4.068 21.292 2.904a10.003 10.003 0 002.675-.98 4.484 4.484 0 002.406-2.963c.539-2.602-1.491-6.139-5.563-9.684a55.25 55.25 0 00-16.796-9.488c-8.2-3.027-16.245-4.087-21.296-2.919a10.46 10.46 0 00-2.641 1.048zm130.283 120.698c-.2-.418-.346-.86-.435-1.314a5.618 5.618 0 01-.114-1.018l-.178-1.532.34-.081c1.361-6.031 10.799-13.162 23.99-17.484 15.917-5.174 31.374-4.277 34.976 1.924l.472-.132.229 2.186.036.325a6.684 6.684 0 01-.126 1.64c-1.194 6.082-10.691 13.317-23.999 17.646-16.221 5.357-31.962 4.34-35.191-2.16z" fill="#FDA212"/><path d="M214.926 155.625c-16.213 5.27-26.758 14.854-23.556 21.39 3.202 6.536 18.875 7.52 35.135 2.286 16.26-5.234 26.754-14.875 23.573-21.414-3.181-6.539-18.943-7.553-35.152-2.262z" fill="#FDB73E"/><path d="M225.553 177.507a56.265 56.265 0 01-19.434 2.971c-5.877-.294-9.874-1.979-11.28-4.71a5.42 5.42 0 01.027-4.698c2.121-5.052 10.232-10.509 20.667-13.891a56.336 56.336 0 0119.446-2.962c5.877.294 9.854 1.983 11.269 4.701a5.477 5.477 0 01-.028 4.698c-.424.971-.978 1.88-1.648 2.701-3.367 4.251-10.428 8.405-19.019 11.19zm-29.713-6.118a4.472 4.472 0 00-.046 3.825c1.185 2.379 4.955 3.894 10.36 4.171a55.126 55.126 0 0018.998-2.962c8.325-2.704 15.29-6.854 18.529-10.884a9.956 9.956 0 001.496-2.424 4.48 4.48 0 00.059-3.816c-1.185-2.379-4.967-3.903-10.36-4.171a55.258 55.258 0 00-19.067 2.929c-8.316 2.692-15.294 6.834-18.541 10.875a10.443 10.443 0 00-1.428 2.457z" fill="#FDA212"/></svg>