<svg width="168" height="329" fill="none" xmlns="http://www.w3.org/2000/svg"><path d="M52.861 217.771a2.45 2.45 0 00.253-.566c.045-.146.078-.296.096-.449l.148-.674-.149-.052c-.338-2.748-4.227-6.347-9.913-8.861-6.864-3.015-13.794-3.303-15.675-.7l-.205-.08-.2.964-.03.144a2.973 2.973 0 00-.016.736c.261 2.764 4.172 6.412 9.91 8.934 6.992 3.11 14.053 3.357 15.782.604z" fill="#FDA212"/><path d="M43.517 206.137c6.991 3.071 11.264 7.812 9.546 10.583s-8.747 2.511-15.762-.546c-7.014-3.057-11.262-7.821-9.553-10.594 1.71-2.773 8.78-2.523 15.769.557z" fill="#FDB73E"/><path d="M37.806 215.417a25.207 25.207 0 008.529 2.19c2.633.131 4.49-.442 5.238-1.597a2.427 2.427 0 00.197-2.095c-.72-2.346-4.093-5.14-8.593-7.111a25.238 25.238 0 00-8.536-2.187c-2.632-.13-4.48.445-5.232 1.594a2.453 2.453 0 00-.196 2.095c.145.451.352.881.614 1.277 1.311 2.045 4.273 4.21 7.979 5.834zm13.515-1.403a2.007 2.007 0 01-.15 1.707c-.633 1.007-2.381 1.515-4.803 1.398a24.709 24.709 0 01-8.335-2.167c-3.59-1.576-6.51-3.736-7.774-5.676a4.484 4.484 0 01-.56-1.147 2.005 2.005 0 01.144-1.704c.635-1.007 2.388-1.518 4.804-1.397 2.894.222 5.726.951 8.368 2.154 3.587 1.571 6.512 3.727 7.78 5.673.227.361.404.75.526 1.159zm56.541 80.563a2.565 2.565 0 00.348-1.015l.148-.675-.149-.051c-.338-2.749-4.226-6.347-9.913-8.861-6.864-3.015-13.794-3.304-15.675-.7l-.205-.08-.2.964-.03.143a2.98 2.98 0 00-.016.737c.261 2.764 4.172 6.411 9.91 8.933 6.992 3.11 14.053 3.358 15.782.605z" fill="#FDA212"/><path d="M98.517 282.943c6.991 3.071 11.264 7.812 9.546 10.583-1.718 2.77-8.747 2.511-15.761-.546-7.015-3.057-11.263-7.822-9.554-10.595 1.71-2.772 8.78-2.522 15.769.558z" fill="#FDB73E"/><path d="M92.805 292.223a25.207 25.207 0 008.53 2.19c2.633.13 4.489-.443 5.238-1.597a2.427 2.427 0 00.196-2.095c-.72-2.346-4.092-5.14-8.592-7.112a25.213 25.213 0 00-8.536-2.186c-2.632-.131-4.48.445-5.232 1.593a2.457 2.457 0 00-.196 2.095c.145.452.352.882.614 1.278 1.311 2.044 4.273 4.21 7.978 5.834zm13.516-1.404a2.003 2.003 0 01-.149 1.708c-.634 1.007-2.382 1.514-4.804 1.397a24.684 24.684 0 01-8.335-2.166c-3.59-1.576-6.51-3.736-7.774-5.676a4.484 4.484 0 01-.56-1.147 2.007 2.007 0 01.145-1.704c.634-1.007 2.387-1.518 4.803-1.398 2.894.222 5.726.952 8.368 2.155 3.587 1.57 6.512 3.727 7.779 5.673.228.36.405.75.527 1.158zM133.59 26.83a3.512 3.512 0 00-.301-.83 3.577 3.577 0 00-.344-.557l-.516-.84-.203.094c-3.065-2.49-10.619-2.341-18.948.699-10.033 3.689-17.437 10.245-16.796 14.78l-.29.12.75 1.188.11.177c.204.286.442.546.71.773 3.002 2.582 10.627 2.463 19.016-.62 10.258-3.718 17.758-10.446 16.812-14.984z" fill="#FDA212"/><path d="M112.485 24.116c10.22-3.757 19.299-3.112 20.273 1.434.974 4.546-6.505 11.23-16.734 15.024-10.229 3.795-19.305 3.1-20.29-1.438-.986-4.54 6.525-11.274 16.751-15.02z" fill="#FDB73E"/><path d="M115.793 39.299a35.944 35.944 0 0010.929-6.184c2.834-2.47 4.175-4.894 3.802-6.82a3.453 3.453 0 00-1.869-2.347c-3.06-1.699-9.286-1.235-15.86 1.19a35.989 35.989 0 00-10.932 6.193c-2.833 2.469-4.163 4.887-3.8 6.81a3.5 3.5 0 001.87 2.348c.596.32 1.234.557 1.894.705 3.369.803 8.554.1 13.966-1.895zm12.499-14.807a2.86 2.86 0 011.534 1.902c.345 1.662-.949 3.912-3.553 6.186a35.22 35.22 0 01-10.706 6.016c-5.247 1.931-10.383 2.599-13.6 1.855a6.375 6.375 0 01-1.708-.626 2.86 2.86 0 01-1.537-1.892c-.345-1.662.952-3.921 3.553-6.186a35.289 35.289 0 0110.728-6.06c5.238-1.933 10.376-2.61 13.602-1.864.59.145 1.158.37 1.687.67zm-58.504 93.091c.127-.267.22-.549.277-.839.044-.214.069-.432.073-.65l.114-.978-.218-.052c-.869-3.852-6.897-8.407-15.322-11.168-10.166-3.305-20.04-2.731-22.34 1.229l-.301-.084-.147 1.396-.023.208c-.016.351.01.703.081 1.047.763 3.885 6.829 8.506 15.328 11.271 10.361 3.421 20.415 2.772 22.478-1.38z" fill="#FDA212"/><path d="M54.88 102.401c10.354 3.366 17.09 9.487 15.045 13.662-2.046 4.175-12.056 4.803-22.441 1.46-10.386-3.343-17.09-9.501-15.057-13.678 2.032-4.176 12.1-4.824 22.452-1.444z" fill="#FDB73E"/><path d="M48.091 116.377a35.936 35.936 0 0012.413 1.898c3.754-.188 6.307-1.264 7.205-3.008a3.466 3.466 0 00-.017-3.001c-1.355-3.227-6.535-6.712-13.2-8.872a35.952 35.952 0 00-12.421-1.892c-3.754.188-6.294 1.266-7.198 3.003a3.499 3.499 0 00.018 3 7.43 7.43 0 001.053 1.725c2.15 2.715 6.66 5.368 12.147 7.147zm18.979-3.907a2.858 2.858 0 01.03 2.443c-.758 1.519-3.166 2.487-6.618 2.664a35.203 35.203 0 01-12.134-1.892c-5.318-1.727-9.767-4.378-11.835-6.952a6.367 6.367 0 01-.956-1.548 2.858 2.858 0 01-.037-2.437c.756-1.52 3.172-2.493 6.617-2.665 4.138-.095 8.26.538 12.178 1.871 5.312 1.72 9.768 4.365 11.843 6.947a6.68 6.68 0 01.912 1.569z" fill="#FDA212"/></svg>