<svg width="303" height="521" fill="none" xmlns="http://www.w3.org/2000/svg"><path d="M127.237 42.475a5.41 5.41 0 01.779-1.116c.223-.252.469-.483.734-.69l1.101-1.043.265.22c5.55-2.48 16.725.75 27.9 8.59 13.451 9.484 21.851 22.184 19.09 28.674l.382.293-1.586 1.468-.235.22a6.556 6.556 0 01-1.366.867c-5.492 2.643-16.784-.573-28.033-8.5-13.774-9.618-22.246-22.611-19.031-28.983z" fill="#FDA212"/><path d="M159.705 46.85c-13.701-9.66-27.46-12.318-30.72-5.946-3.26 6.372 5.198 19.292 18.899 29.012 13.7 9.72 27.474 12.303 30.749 5.946 3.275-6.358-5.213-19.366-18.928-29.012z" fill="#FDB73E"/><path d="M148.735 68.11a55.347 55.347 0 01-13.788-13.552c-3.231-4.801-4.259-8.941-2.937-11.658a5.326 5.326 0 013.715-2.746c5.228-1.306 14.303 1.865 23.113 8.09a55.382 55.382 0 0113.789 13.567c3.231 4.801 4.244 8.927 2.937 11.643a5.393 5.393 0 01-3.715 2.745 11.463 11.463 0 01-3.099.294c-5.33-.147-12.76-3.26-20.015-8.383zm-12.687-27a4.4 4.4 0 00-3.04 2.216c-1.174 2.335-.146 6.196 2.82 10.615a54.222 54.222 0 0013.524 13.214c7.034 4.963 14.406 8.002 19.487 8.178a9.828 9.828 0 002.79-.25 4.412 4.412 0 003.039-2.202c1.175-2.334.147-6.21-2.819-10.615A54.338 54.338 0 00158.31 48.98c-7.019-4.963-14.391-8.017-19.487-8.193a10.28 10.28 0 00-2.775.323zm60.97 403.974a5.42 5.42 0 01-.553-1.242 5.542 5.542 0 01-.212-.985l-.323-1.482.325-.113c.742-6.034 9.28-13.935 21.765-19.454 15.069-6.619 30.282-7.252 34.413-1.537l.449-.175.438 2.117.067.314c.079.536.091 1.079.036 1.617-.573 6.068-9.159 14.077-21.758 19.614-15.349 6.827-30.851 7.371-34.647 1.326z" fill="#FDA212"/><path d="M217.534 419.543c-15.349 6.742-24.731 17.151-20.958 23.234 3.772 6.082 19.204 5.513 34.604-1.199 15.399-6.711 24.725-17.171 20.973-23.259-3.752-6.088-19.275-5.538-34.619 1.224z" fill="#FDB73E"/><path d="M230.073 439.916a55.332 55.332 0 01-18.726 4.808c-5.78.287-9.856-.972-11.499-3.506a5.322 5.322 0 01-.432-4.6c1.581-5.151 8.984-11.284 18.865-15.613a55.369 55.369 0 0118.738-4.8c5.78-.287 9.836.977 11.487 3.499a5.394 5.394 0 01.432 4.599 11.46 11.46 0 01-1.349 2.805c-2.879 4.488-9.382 9.243-17.516 12.808zm-29.673-3.081a4.41 4.41 0 00.328 3.748c1.392 2.211 5.23 3.326 10.546 3.068a54.212 54.212 0 0018.3-4.756c7.883-3.46 14.292-8.202 17.068-12.462a9.83 9.83 0 001.227-2.518 4.399 4.399 0 00-.316-3.74c-1.392-2.212-5.242-3.334-10.546-3.069a54.341 54.341 0 00-18.37 4.731c-7.875 3.447-14.298 8.182-17.08 12.454-.5.792-.889 1.647-1.157 2.544zM41.231 310.931a3.824 3.824 0 01-.391-.878 3.888 3.888 0 01-.15-.696l-.228-1.046.23-.08c.524-4.263 6.555-9.844 15.375-13.743 10.645-4.676 21.392-5.123 24.31-1.085l.317-.124.31 1.495.047.222c.056.379.064.762.026 1.142-.406 4.287-6.47 9.944-15.37 13.856-10.844 4.823-21.795 5.207-24.476.937z" fill="#FDA212"/><path d="M55.724 292.888c-10.843 4.762-17.47 12.116-14.806 16.412 2.665 4.297 13.567 3.895 24.445-.846s17.467-12.13 14.816-16.431c-2.65-4.3-13.616-3.912-24.455.865z" fill="#FDB73E"/><path d="M64.581 307.28a39.103 39.103 0 01-13.228 3.396c-4.083.203-6.962-.686-8.123-2.477a3.765 3.765 0 01-.305-3.249c1.116-3.639 6.346-7.971 13.326-11.029a39.103 39.103 0 0113.238-3.391c4.082-.203 6.948.69 8.114 2.471a3.806 3.806 0 01.305 3.249 8.09 8.09 0 01-.953 1.982c-2.034 3.17-6.627 6.529-12.374 9.048zm-20.961-2.177a3.111 3.111 0 00.232 2.647c.983 1.563 3.694 2.35 7.45 2.168a38.29 38.29 0 0012.927-3.36c5.568-2.444 10.096-5.794 12.057-8.803a6.924 6.924 0 00.867-1.779 3.11 3.11 0 00-.223-2.642c-.984-1.562-3.704-2.355-7.45-2.168a38.408 38.408 0 00-12.978 3.342c-5.563 2.435-10.1 5.78-12.065 8.798a7.272 7.272 0 00-.817 1.797zm63.183-134.085c.094-.308.226-.602.393-.877a3.94 3.94 0 01.419-.576l.627-.868.212.118c3.525-2.455 11.706-1.687 20.496 2.28 10.586 4.809 18.09 12.514 17.03 17.382l.304.154-.907 1.228-.134.184a4.642 4.642 0 01-.834.781c-3.463 2.558-11.723 1.816-20.576-2.202-10.827-4.858-18.421-12.758-17.03-17.604z" fill="#FDA212"/><path d="M129.913 169.772c-10.783-4.898-20.682-4.927-22.104-.075-1.422 4.852 6.152 12.703 16.942 17.641 10.79 4.939 20.69 4.915 22.124.071 1.434-4.844-6.172-12.752-16.962-17.637z" fill="#FDB73E"/><path d="M125.104 185.973a39.096 39.096 0 01-11.357-7.587c-2.875-2.905-4.134-5.643-3.575-7.703a3.768 3.768 0 012.216-2.395c3.455-1.596 10.172-.592 17.107 2.566a39.107 39.107 0 0111.359 7.596c2.875 2.906 4.123 5.635 3.574 7.693a3.815 3.815 0 01-2.216 2.395 8.06 8.06 0 01-2.112.613c-3.719.601-9.286-.579-14.996-3.178zm-12.366-17.065a3.114 3.114 0 00-1.817 1.939c-.508 1.775.715 4.32 3.356 6.995a38.334 38.334 0 0011.129 7.387c5.536 2.516 11.053 3.653 14.602 3.105a6.945 6.945 0 001.904-.541 3.12 3.12 0 001.819-1.929c.507-1.775-.718-4.33-3.357-6.995a38.383 38.383 0 00-11.149-7.436c-5.526-2.518-11.044-3.665-14.604-3.115a7.245 7.245 0 00-1.883.59z" fill="#FDA212"/></svg>