<svg width="168" height="329" fill="none" xmlns="http://www.w3.org/2000/svg"><path d="M114.585 217.771a2.476 2.476 0 01-.252-.566 2.529 2.529 0 01-.097-.449l-.147-.674.148-.052c.338-2.748 4.227-6.347 9.914-8.861 6.864-3.015 13.793-3.303 15.675-.7l.204-.08.2.964.03.144c.036.244.042.491.017.736-.261 2.764-4.172 6.412-9.911 8.934-6.991 3.11-14.052 3.357-15.781.604z" fill="#FDA212"/><path d="M123.93 206.137c-6.991 3.071-11.265 7.812-9.547 10.583 1.719 2.771 8.748 2.511 15.762-.546 7.014-3.057 11.262-7.821 9.553-10.594-1.709-2.773-8.779-2.523-15.768.557z" fill="#FDB73E"/><path d="M129.641 215.417a25.209 25.209 0 01-8.53 2.19c-2.632.131-4.489-.442-5.237-1.597a2.423 2.423 0 01-.197-2.095c.72-2.346 4.092-5.14 8.593-7.111a25.238 25.238 0 018.535-2.187c2.633-.13 4.48.445 5.232 1.594a2.451 2.451 0 01.197 2.095 5.24 5.24 0 01-.615 1.277c-1.311 2.045-4.273 4.21-7.978 5.834zm-13.516-1.403a1.998 1.998 0 00.15 1.707c.634 1.007 2.382 1.515 4.803 1.398a24.709 24.709 0 008.336-2.167c3.59-1.576 6.51-3.736 7.774-5.676a4.5 4.5 0 00.559-1.147 2.003 2.003 0 00-.144-1.704c-.634-1.007-2.388-1.518-4.804-1.397a24.756 24.756 0 00-8.367 2.154c-3.587 1.571-6.512 3.727-7.78 5.673-.227.361-.405.75-.527 1.159zM97.66 117.583a3.528 3.528 0 01-.278-.839 3.582 3.582 0 01-.074-.65l-.113-.978.217-.052c.87-3.852 6.898-8.407 15.323-11.168 10.166-3.305 20.039-2.731 22.34 1.229l.301-.084.146 1.396.024.208c.016.351-.011.703-.081 1.047-.763 3.885-6.829 8.506-15.329 11.271-10.36 3.421-20.414 2.772-22.477-1.38z" fill="#FDA212"/><path d="M112.567 102.401c-10.355 3.366-17.09 9.487-15.045 13.662 2.045 4.175 12.055 4.803 22.441 1.46 10.385-3.343 17.089-9.501 15.057-13.678-2.032-4.176-12.1-4.824-22.453-1.444z" fill="#FDB73E"/><path d="M119.355 116.377a35.934 35.934 0 01-12.412 1.898c-3.754-.188-6.307-1.264-7.206-3.008a3.466 3.466 0 01.018-3.001c1.355-3.227 6.535-6.712 13.201-8.872a35.95 35.95 0 0112.42-1.892c3.754.188 6.293 1.266 7.197 3.003a3.494 3.494 0 01-.017 3 7.433 7.433 0 01-1.053 1.725c-2.151 2.715-6.66 5.368-12.148 7.147zm-18.978-3.907a2.857 2.857 0 00-.03 2.443c.757 1.519 3.165 2.487 6.618 2.664a35.203 35.203 0 0012.134-1.892c5.318-1.727 9.766-4.378 11.835-6.952.391-.467.713-.989.956-1.548a2.856 2.856 0 00.037-2.437c-.757-1.52-3.173-2.493-6.617-2.665a35.293 35.293 0 00-12.178 1.871c-5.312 1.72-9.769 4.365-11.843 6.947a6.67 6.67 0 00-.912 1.569zM59.585 294.577a2.489 2.489 0 01-.252-.566 2.522 2.522 0 01-.096-.449l-.148-.675.148-.051c.338-2.749 4.227-6.347 9.914-8.861 6.864-3.015 13.793-3.304 15.675-.7l.204-.08.2.964.03.143c.036.244.042.492.017.737-.261 2.764-4.172 6.412-9.91 8.933-6.992 3.11-14.053 3.358-15.782.605z" fill="#FDA212"/><path d="M68.93 282.943c-6.992 3.071-11.265 7.812-9.547 10.583 1.719 2.77 8.748 2.511 15.762-.546 7.014-3.057 11.262-7.822 9.553-10.594-1.709-2.773-8.78-2.523-15.768.557z" fill="#FDB73E"/><path d="M74.64 292.223a25.207 25.207 0 01-8.528 2.19c-2.633.13-4.49-.443-5.238-1.597a2.431 2.431 0 01-.197-2.095c.72-2.346 4.092-5.14 8.593-7.112a25.212 25.212 0 018.535-2.186c2.632-.131 4.48.445 5.232 1.593a2.456 2.456 0 01.197 2.095 5.224 5.224 0 01-.615 1.278c-1.31 2.044-4.273 4.21-7.978 5.834zm-13.515-1.404a2.012 2.012 0 00.15 1.708c.634 1.007 2.382 1.514 4.803 1.397a24.684 24.684 0 008.336-2.166c3.59-1.576 6.51-3.736 7.774-5.676a4.5 4.5 0 00.559-1.147 2.007 2.007 0 00-.144-1.704c-.634-1.007-2.388-1.518-4.804-1.398a24.759 24.759 0 00-8.367 2.155c-3.587 1.57-6.512 3.727-7.78 5.673-.227.36-.405.75-.527 1.158zM33.857 26.83c.065-.288.166-.568.3-.83a3.58 3.58 0 01.345-.557l.516-.84.203.094c3.065-2.49 10.619-2.341 18.947.699 10.033 3.689 17.438 10.245 16.797 14.78l.289.12-.749 1.188-.11.177a4.242 4.242 0 01-.711.773c-3.001 2.582-10.626 2.463-19.016-.62C40.41 38.096 32.91 31.367 33.857 26.83z" fill="#FDA212"/><path d="M54.96 24.116c-10.217-3.756-19.296-3.112-20.27 1.434-.974 4.546 6.504 11.23 16.733 15.024 10.23 3.795 19.305 3.1 20.29-1.438.987-4.54-6.525-11.274-16.751-15.02z" fill="#FDB73E"/><path d="M51.653 39.299a35.943 35.943 0 01-10.928-6.184c-2.834-2.47-4.175-4.894-3.803-6.82a3.462 3.462 0 011.87-2.347c3.06-1.699 9.286-1.235 15.86 1.19a35.975 35.975 0 0110.931 6.193c2.834 2.469 4.163 4.887 3.8 6.81a3.5 3.5 0 01-1.87 2.348 7.444 7.444 0 01-1.894.705c-3.369.803-8.553.1-13.966-1.895zM39.155 24.492a2.861 2.861 0 00-1.535 1.902c-.344 1.662.95 3.912 3.554 6.186a35.22 35.22 0 0010.706 6.016c5.247 1.931 10.382 2.599 13.6 1.855a6.38 6.38 0 001.708-.626 2.86 2.86 0 001.537-1.892c.344-1.662-.952-3.921-3.554-6.186a35.287 35.287 0 00-10.727-6.06c-5.238-1.933-10.376-2.61-13.602-1.864-.59.145-1.158.37-1.687.67z" fill="#FDA212"/></svg>