<svg width="395" height="241" fill="none" xmlns="http://www.w3.org/2000/svg"><path d="M20.381 219.249a2.99 2.99 0 00-.518-1.682 3.045 3.045 0 00-1.38-1.111 3.075 3.075 0 00-3.333.68 2.988 2.988 0 00-.624 3.308c.24.55.64 1.017 1.15 1.342.51.324 1.105.491 1.711.48a3.05 3.05 0 002.127-.898 2.982 2.982 0 00.867-2.119zm24.053 0a2.99 2.99 0 00-.515-1.676 3.045 3.045 0 00-1.37-1.112 3.083 3.083 0 00-3.326.654 2.987 2.987 0 00-.662 3.289 3.03 3.03 0 001.124 1.354 3.082 3.082 0 003.854-.376 2.998 2.998 0 00.895-2.133zm23.878 0a2.99 2.99 0 00-.515-1.676 3.045 3.045 0 00-1.37-1.112 3.083 3.083 0 00-3.326.654 2.987 2.987 0 00-.662 3.289 3.029 3.029 0 001.124 1.354 3.082 3.082 0 003.855-.376 2.998 2.998 0 00.894-2.133zm-47.931-29.046a2.995 2.995 0 00-.537-1.672 3.043 3.043 0 00-1.387-1.093 3.078 3.078 0 00-3.32.704 3 3 0 00-.81 1.56 2.984 2.984 0 00.203 1.742 3.028 3.028 0 001.15 1.336c.508.323 1.103.49 1.707.478a3.044 3.044 0 002.14-.912 2.99 2.99 0 00.854-2.143zm24.053 0a2.988 2.988 0 00-.8-2.287 3.084 3.084 0 00-3.466-.717 3.051 3.051 0 00-1.02.717 2.988 2.988 0 00.172 4.263 3.071 3.071 0 002.07.801c.768 0 1.508-.286 2.072-.801.563-.514.91-1.22.971-1.976zm23.878 0a2.986 2.986 0 00-.8-2.287 3.083 3.083 0 00-3.466-.717 3.053 3.053 0 00-1.02.717 2.986 2.986 0 00.172 4.263 3.07 3.07 0 002.071.801c.767 0 1.507-.286 2.07-.801.565-.514.912-1.22.973-1.976zm-47.931-29.045a2.994 2.994 0 00-.509-1.688 3.047 3.047 0 00-1.375-1.119 3.09 3.09 0 00-1.773-.169c-.595.119-1.14.41-1.567.837-.427.427-.714.97-.827 1.56a2.984 2.984 0 00.194 1.75c.24.551.64 1.02 1.15 1.345.51.325 1.106.493 1.713.482a3.052 3.052 0 002.12-.892 2.98 2.98 0 00.874-2.106zm24.053 0a2.989 2.989 0 00-.8-2.287 3.082 3.082 0 00-4.485 0 2.989 2.989 0 00.172 4.264 3.075 3.075 0 004.142 0c.562-.515.91-1.221.97-1.977zm23.878 0a2.99 2.99 0 00-.8-2.287 3.083 3.083 0 00-4.485 0 2.99 2.99 0 00.172 4.264 3.075 3.075 0 004.142 0c.563-.515.91-1.221.97-1.977zM20.381 132.15a3.004 3.004 0 00-.972-1.977 3.071 3.071 0 00-2.07-.801c-.768 0-1.508.286-2.072.801a3.003 3.003 0 00-.971 1.977 2.985 2.985 0 00.8 2.286 3.054 3.054 0 002.242.971 3.054 3.054 0 002.242-.971 3.003 3.003 0 00.801-2.286zm24.053 0a3 3 0 00-.515-1.677 3.043 3.043 0 00-1.37-1.111 3.092 3.092 0 00-1.763-.172 3.068 3.068 0 00-1.563.826 2.984 2.984 0 00-.662 3.288 3.019 3.019 0 001.124 1.354 3.075 3.075 0 001.696.509 3.07 3.07 0 002.164-.878 2.993 2.993 0 00.889-2.139zm23.878 0a3 3 0 00-.515-1.677 3.043 3.043 0 00-1.37-1.111 3.092 3.092 0 00-1.763-.172 3.068 3.068 0 00-1.563.826c-.427.422-.718.96-.835 1.545a2.983 2.983 0 00.173 1.743 3.018 3.018 0 001.124 1.354 3.075 3.075 0 001.696.509 3.07 3.07 0 002.164-.878 2.994 2.994 0 00.889-2.139z" fill="#ECB548"/><path d="M68.312 219.249a2.99 2.99 0 00-.515-1.676 3.045 3.045 0 00-1.37-1.112 3.083 3.083 0 00-3.326.654 2.987 2.987 0 00-.662 3.289 3.029 3.029 0 001.124 1.354 3.082 3.082 0 003.855-.376 2.998 2.998 0 00.894-2.133zm23.955 0a2.99 2.99 0 00-.516-1.678 3.046 3.046 0 00-1.373-1.112 3.092 3.092 0 00-1.766-.168 3.062 3.062 0 00-1.562.831 2.985 2.985 0 00-.65 3.295 3.024 3.024 0 001.133 1.35 3.078 3.078 0 001.701.499 3.062 3.062 0 002.152-.885 2.99 2.99 0 00.881-2.132zm23.975 0c0-.597-.179-1.18-.515-1.676a3.045 3.045 0 00-1.369-1.112 3.085 3.085 0 00-3.327.654c-.427.422-.717.96-.835 1.545a2.986 2.986 0 00.173 1.744 3.037 3.037 0 001.125 1.354 3.082 3.082 0 003.854-.376 3 3 0 00.894-2.133zm23.955 0a2.99 2.99 0 00-.515-1.678 3.054 3.054 0 00-1.373-1.112 3.094 3.094 0 00-1.767-.168 3.063 3.063 0 00-1.562.831 3.01 3.01 0 00-.831 1.55 2.982 2.982 0 00.182 1.745 3.026 3.026 0 001.132 1.35 3.08 3.08 0 003.847-.391c.568-.566.887-1.33.887-2.127zm24.014 0c0-.595-.178-1.177-.512-1.672a3.045 3.045 0 00-1.364-1.112 3.09 3.09 0 00-1.758-.178 3.06 3.06 0 00-1.563.815 2.986 2.986 0 00-.687 3.275 3.03 3.03 0 001.108 1.362 3.07 3.07 0 001.685.527 3.065 3.065 0 002.189-.864 2.997 2.997 0 00.902-2.153zm23.897 0c0-.598-.179-1.182-.516-1.678a3.044 3.044 0 00-1.373-1.112 3.09 3.09 0 00-1.766-.168 3.063 3.063 0 00-1.562.831 3.002 3.002 0 00-.831 1.55 2.982 2.982 0 00.181 1.745 3.028 3.028 0 001.133 1.35 3.08 3.08 0 001.701.499 3.06 3.06 0 002.152-.885 2.984 2.984 0 00.881-2.132zm23.975 0c0-.597-.179-1.18-.514-1.676a3.048 3.048 0 00-1.37-1.112 3.085 3.085 0 00-3.327.654 2.986 2.986 0 00-.661 3.289 3.028 3.028 0 001.124 1.354 3.082 3.082 0 003.854-.376 3 3 0 00.894-2.133zm23.956 0c0-.597-.18-1.18-.515-1.676a3.042 3.042 0 00-1.37-1.112 3.082 3.082 0 00-3.326.654 2.994 2.994 0 00-.662 3.289 3.028 3.028 0 001.124 1.354 3.082 3.082 0 003.854-.376 2.996 2.996 0 00.895-2.133zm23.955 0c0-.597-.179-1.18-.514-1.676a3.053 3.053 0 00-1.37-1.112 3.085 3.085 0 00-3.327.654c-.427.422-.717.96-.835 1.545a2.983 2.983 0 00.174 1.743 3.025 3.025 0 001.124 1.355 3.082 3.082 0 001.696.508 3.042 3.042 0 002.164-.878 3 3 0 00.661-.982c.152-.367.23-.76.227-1.157zm23.994 0c0-.597-.179-1.18-.514-1.676a3.048 3.048 0 00-1.37-1.112 3.085 3.085 0 00-3.327.654 2.986 2.986 0 00-.661 3.289 3.028 3.028 0 001.124 1.354 3.082 3.082 0 003.854-.376 3 3 0 00.894-2.133zm23.936 0c0-.597-.179-1.18-.514-1.676a3.048 3.048 0 00-1.37-1.112 3.085 3.085 0 00-3.327.654 2.986 2.986 0 00-.661 3.289 3.028 3.028 0 001.124 1.354 3.082 3.082 0 003.854-.376 2.995 2.995 0 00.894-2.133zm23.956 0c0-.598-.18-1.182-.516-1.678a3.044 3.044 0 00-1.373-1.112 3.092 3.092 0 00-1.766-.168 3.062 3.062 0 00-1.563.831 2.99 2.99 0 00-.649 3.295 3.021 3.021 0 001.133 1.35 3.076 3.076 0 001.701.499 3.06 3.06 0 002.151-.885 2.984 2.984 0 00.882-2.132zM68.311 190.203a2.986 2.986 0 00-.8-2.287 3.083 3.083 0 00-3.466-.717 3.051 3.051 0 00-1.019.717 2.988 2.988 0 00.172 4.263 3.071 3.071 0 002.07.801c.768 0 1.507-.286 2.071-.801a3 3 0 00.972-1.976zm23.956 0a2.996 2.996 0 00-.534-1.668 3.05 3.05 0 00-1.381-1.094 3.087 3.087 0 00-1.763-.153c-.59.122-1.13.414-1.553.84a2.987 2.987 0 00-.632 3.29c.235.548.63 1.016 1.133 1.344a3.08 3.08 0 001.697.496 3.055 3.055 0 002.165-.898 2.971 2.971 0 00.868-2.157zm23.975 0a2.997 2.997 0 00-.533-1.666 3.045 3.045 0 00-1.378-1.094 3.078 3.078 0 00-3.313.678 2.99 2.99 0 00-.645 3.283 3.034 3.034 0 001.125 1.348 3.075 3.075 0 002.869.273c.372-.154.711-.38.995-.664a3.005 3.005 0 00.88-2.158zm23.955 0a3 3 0 00-.8-2.287 3.085 3.085 0 00-3.466-.717 3.054 3.054 0 00-1.019.717 3.014 3.014 0 00-.642 1.06 3 3 0 00.814 3.203 3.071 3.071 0 002.071.801c.767 0 1.507-.286 2.07-.801a3 3 0 00.972-1.976zm24.014 0a2.99 2.99 0 00-.531-1.662 3.049 3.049 0 00-1.371-1.095 3.087 3.087 0 00-3.309.662 2.987 2.987 0 00-.669 3.27c.226.55.612 1.021 1.108 1.356.496.334 1.08.517 1.681.524a3.054 3.054 0 002.203-.877 2.973 2.973 0 00.888-2.178zm23.897 0a2.989 2.989 0 00-.534-1.668 3.048 3.048 0 00-1.381-1.094 3.088 3.088 0 00-1.763-.153c-.59.122-1.13.414-1.553.84a2.991 2.991 0 00-.632 3.29c.235.548.63 1.016 1.133 1.344a3.08 3.08 0 001.697.496c.403 0 .803-.079 1.175-.233a3.009 3.009 0 001.644-1.657c.149-.371.222-.767.214-1.165zm23.975 0a2.975 2.975 0 00-.158-1.227 3.014 3.014 0 00-.642-1.06 3.081 3.081 0 00-3.467-.717 3.05 3.05 0 00-1.018.717 3 3 0 00-.8 2.287 3 3 0 00.972 1.976 3.069 3.069 0 002.07.801c.768 0 1.507-.286 2.071-.801a3 3 0 00.972-1.976zm23.956 0a3.008 3.008 0 00-.158-1.227 3.04 3.04 0 00-1.661-1.777 3.085 3.085 0 00-2.448 0 3.054 3.054 0 00-1.019.717 2.991 2.991 0 00.172 4.263 3.071 3.071 0 002.071.801c.767 0 1.507-.286 2.071-.801a3 3 0 00.972-1.976zm23.955 0a2.997 2.997 0 00-.533-1.666 3.04 3.04 0 00-1.378-1.094 3.087 3.087 0 00-1.76-.157 3.06 3.06 0 00-1.553.835 2.992 2.992 0 00-.645 3.283 3.034 3.034 0 001.125 1.348c.501.33 1.09.506 1.692.506a3.06 3.06 0 002.178-.891 2.999 2.999 0 00.874-2.164zm23.994 0a3 3 0 00-.532-1.664 3.05 3.05 0 00-1.374-1.095 3.089 3.089 0 00-1.758-.159 3.066 3.066 0 00-1.553.829 3.01 3.01 0 00-.829 1.541 2.983 2.983 0 00.172 1.736c.229.55.617 1.02 1.116 1.352a3.078 3.078 0 003.871-.375 2.997 2.997 0 00.887-2.165zm23.936 0a2.975 2.975 0 00-.158-1.227 3.014 3.014 0 00-.642-1.06 3.081 3.081 0 00-3.467-.717 3.06 3.06 0 00-1.018.717 3 3 0 00-.8 2.287 3 3 0 00.972 1.976 3.07 3.07 0 002.07.801c.768 0 1.507-.286 2.071-.801a3 3 0 00.972-1.976zm23.956 0a2.997 2.997 0 00-.535-1.668 3.048 3.048 0 00-1.381-1.094 3.087 3.087 0 00-1.763-.153c-.59.122-1.13.414-1.552.84a3.004 3.004 0 00-.82 1.55 2.983 2.983 0 00.188 1.74 3.03 3.03 0 001.133 1.344c.503.327 1.094.5 1.697.496a3.048 3.048 0 002.165-.898 2.984 2.984 0 00.868-2.157zM68.311 161.158a2.989 2.989 0 00-.8-2.287 3.082 3.082 0 00-4.485 0 2.99 2.99 0 00.172 4.264 3.075 3.075 0 004.142 0c.563-.515.91-1.221.971-1.977zm23.956 0a2.992 2.992 0 00-.506-1.684 3.04 3.04 0 00-1.37-1.119 3.09 3.09 0 00-1.767-.177 3.066 3.066 0 00-1.567.827 2.984 2.984 0 00-.658 3.297 3.025 3.025 0 001.132 1.353c.505.33 1.098.504 1.703.501.805 0 1.576-.316 2.145-.878a2.982 2.982 0 00.888-2.12zm23.975 0a2.993 2.993 0 00-.505-1.682 3.045 3.045 0 00-1.366-1.12 3.09 3.09 0 00-1.765-.179c-.593.114-1.139.4-1.568.821a2.984 2.984 0 00-.67 3.291c.23.552.621 1.025 1.124 1.357a3.08 3.08 0 003.849-.367 3 3 0 00.901-2.121zm23.955 0a3 3 0 00-.8-2.287 3.05 3.05 0 00-1.018-.717 3.084 3.084 0 00-3.467.717 3.014 3.014 0 00-.642 1.06 2.977 2.977 0 00-.158 1.227c.061.756.408 1.462.972 1.977a3.075 3.075 0 004.141 0 3.005 3.005 0 00.972-1.977zm24.014 0a2.991 2.991 0 00-.507-1.684 3.032 3.032 0 00-1.369-1.119 3.087 3.087 0 00-1.767-.177 3.067 3.067 0 00-1.568.827 2.988 2.988 0 00-.658 3.297 3.03 3.03 0 001.133 1.353c.505.33 1.097.504 1.703.501a3.05 3.05 0 002.144-.878 2.982 2.982 0 00.889-2.12zm23.897 0a2.99 2.99 0 00-.506-1.684 3.037 3.037 0 00-1.369-1.119 3.091 3.091 0 00-1.768-.177 3.064 3.064 0 00-1.567.827c-.428.423-.72.962-.837 1.55a2.98 2.98 0 00.179 1.747 3.02 3.02 0 001.132 1.353c.505.33 1.098.504 1.703.501.805 0 1.576-.316 2.145-.878a2.981 2.981 0 00.888-2.12zm23.975 0a2.977 2.977 0 00-.158-1.227 3.014 3.014 0 00-.642-1.06 3.08 3.08 0 00-4.485 0 3 3 0 00-.8 2.287c.061.756.408 1.462.972 1.977a3.075 3.075 0 004.141 0 3.005 3.005 0 00.972-1.977zm23.956 0a3.01 3.01 0 00-.158-1.227 3.04 3.04 0 00-1.661-1.777 3.084 3.084 0 00-3.467.717 2.994 2.994 0 00.172 4.264 3.077 3.077 0 004.142 0 3.005 3.005 0 00.972-1.977zm23.955 0a2.993 2.993 0 00-.505-1.682 3.045 3.045 0 00-1.366-1.12 3.09 3.09 0 00-1.765-.179c-.593.114-1.139.4-1.568.821a2.984 2.984 0 00-.67 3.291c.23.552.621 1.024 1.124 1.357a3.08 3.08 0 001.698.51 3.061 3.061 0 002.157-.872 2.989 2.989 0 00.895-2.126zm23.994 0a2.993 2.993 0 00-.505-1.682 3.045 3.045 0 00-1.366-1.12 3.089 3.089 0 00-1.765-.179c-.593.114-1.139.4-1.568.821a2.984 2.984 0 00-.67 3.291c.23.552.622 1.025 1.124 1.357a3.08 3.08 0 003.849-.367 3 3 0 00.901-2.121zm23.936 0a2.977 2.977 0 00-.158-1.227 3.014 3.014 0 00-.642-1.06 3.08 3.08 0 00-4.485 0 3 3 0 00-.8 2.287c.061.756.408 1.462.972 1.977a3.075 3.075 0 004.141 0 3.005 3.005 0 00.972-1.977zm23.956 0a2.999 2.999 0 00-.507-1.684 3.037 3.037 0 00-1.369-1.119 3.088 3.088 0 00-1.767-.177 3.067 3.067 0 00-1.568.827 3.003 3.003 0 00-.836 1.55 2.98 2.98 0 00.178 1.747 3.023 3.023 0 001.133 1.353c.504.33 1.097.504 1.703.501.804 0 1.575-.316 2.144-.878a2.982 2.982 0 00.889-2.12zM68.312 132.15a3 3 0 00-.515-1.677 3.044 3.044 0 00-1.37-1.111 3.092 3.092 0 00-1.763-.172 3.068 3.068 0 00-1.563.826c-.427.422-.718.96-.835 1.545a2.983 2.983 0 00.173 1.743 3.018 3.018 0 001.124 1.354 3.074 3.074 0 001.696.509 3.07 3.07 0 002.164-.878 2.994 2.994 0 00.889-2.139zm23.955 0a3.004 3.004 0 00-.972-1.977 3.071 3.071 0 00-2.07-.801c-.768 0-1.507.286-2.071.801a3.003 3.003 0 00-.972 1.977 2.985 2.985 0 00.8 2.286 3.054 3.054 0 002.242.971 3.054 3.054 0 002.242-.971 3.003 3.003 0 00.801-2.286zm23.975 0c0-.597-.179-1.18-.515-1.677a3.043 3.043 0 00-1.369-1.111 3.094 3.094 0 00-1.764-.172 3.07 3.07 0 00-1.563.826c-.427.422-.717.96-.835 1.545a2.982 2.982 0 00.173 1.743 3.026 3.026 0 001.125 1.354 3.074 3.074 0 001.696.509 3.073 3.073 0 002.164-.878 2.983 2.983 0 00.888-2.139zm23.955 0a2.99 2.99 0 00-.487-1.694 3.075 3.075 0 00-4.709-.511 3.006 3.006 0 00-.847 1.549 2.982 2.982 0 00.171 1.753 3.03 3.03 0 001.132 1.359c.506.332 1.1.507 1.707.504a3.05 3.05 0 002.131-.865 2.98 2.98 0 00.902-2.095zm24.014 0a3.003 3.003 0 00-.972-1.977 3.071 3.071 0 00-2.071-.801c-.768 0-1.507.286-2.071.801a3.003 3.003 0 00-.972 1.977c-.033.415.021.832.158 1.226a3.043 3.043 0 001.661 1.778 3.084 3.084 0 003.467-.718 3.006 3.006 0 00.8-2.286zm23.897 0a3.003 3.003 0 00-.972-1.977 3.07 3.07 0 00-2.07-.801c-.768 0-1.507.286-2.071.801a3.003 3.003 0 00-.972 1.977 3.005 3.005 0 00.8 2.286 3.057 3.057 0 002.243.971 3.075 3.075 0 002.242-.971 3.005 3.005 0 00.8-2.286zm23.975 0c0-.597-.179-1.18-.514-1.677a3.045 3.045 0 00-1.37-1.111 3.094 3.094 0 00-1.764-.172 3.07 3.07 0 00-1.563.826c-.427.422-.717.96-.835 1.545a2.983 2.983 0 00.174 1.743 3.018 3.018 0 001.124 1.354 3.074 3.074 0 001.696.509 3.073 3.073 0 002.164-.878 3 3 0 00.661-.982c.152-.367.23-.76.227-1.157zm23.956 0c0-.597-.179-1.18-.515-1.677a3.04 3.04 0 00-1.37-1.111 3.07 3.07 0 00-3.326.654 2.99 2.99 0 00-.662 3.288 3.018 3.018 0 001.124 1.354 3.074 3.074 0 001.696.509 3.065 3.065 0 002.164-.878 2.984 2.984 0 00.889-2.139zm23.955 0a3.003 3.003 0 00-.972-1.977 3.071 3.071 0 00-2.071-.801c-.767 0-1.507.286-2.071.801a3.006 3.006 0 00-.971 1.977 2.99 2.99 0 00.8 2.286 3.053 3.053 0 002.242.971 3.08 3.08 0 002.243-.971 3.005 3.005 0 00.8-2.286zm23.994 0c0-.597-.179-1.18-.514-1.677a3.05 3.05 0 00-1.37-1.111 3.094 3.094 0 00-1.764-.172 3.07 3.07 0 00-1.563.826c-.427.422-.717.96-.835 1.545a2.983 2.983 0 00.174 1.743 3.018 3.018 0 001.124 1.354 3.074 3.074 0 001.696.509 3.073 3.073 0 002.164-.878 3 3 0 00.661-.982c.152-.367.23-.76.227-1.157zm23.936 0c0-.597-.179-1.18-.514-1.677a3.045 3.045 0 00-1.37-1.111 3.094 3.094 0 00-1.764-.172 3.07 3.07 0 00-1.563.826c-.427.422-.717.96-.835 1.545a2.983 2.983 0 00.174 1.743 3.018 3.018 0 001.124 1.354 3.074 3.074 0 001.696.509 3.073 3.073 0 002.164-.878 2.984 2.984 0 00.888-2.139zm23.956 0a3.003 3.003 0 00-.972-1.977 3.073 3.073 0 00-2.071-.801c-.768 0-1.507.286-2.071.801a2.989 2.989 0 00-.172 4.263 3.057 3.057 0 002.243.971c.421 0 .838-.086 1.224-.253a3.043 3.043 0 001.661-1.778c.137-.394.191-.811.158-1.226z" fill="#ECB548"/><path d="M331.88 219.249c0-.598-.18-1.182-.516-1.678a3.044 3.044 0 00-1.373-1.112 3.092 3.092 0 00-1.766-.168 3.062 3.062 0 00-1.563.831 2.99 2.99 0 00-.649 3.295 3.021 3.021 0 001.133 1.35 3.076 3.076 0 001.701.499 3.06 3.06 0 002.151-.885 2.984 2.984 0 00.882-2.132zm23.955 0c0-.598-.179-1.182-.516-1.678a3.044 3.044 0 00-1.373-1.112 3.09 3.09 0 00-1.766-.168 3.063 3.063 0 00-1.562.831 2.995 2.995 0 00.483 4.645 3.08 3.08 0 001.701.499 3.06 3.06 0 002.152-.885 2.984 2.984 0 00.881-2.132zm23.975 0c0-.595-.178-1.177-.512-1.673a3.043 3.043 0 00-1.364-1.111 3.082 3.082 0 00-3.321.637 3 3 0 00-.687 3.275 3.03 3.03 0 001.108 1.362 3.081 3.081 0 003.868-.343 3.013 3.013 0 00.908-2.147zm-47.93-29.046a2.997 2.997 0 00-.535-1.668 3.048 3.048 0 00-1.381-1.094 3.087 3.087 0 00-1.763-.153c-.59.122-1.13.414-1.552.84a3.004 3.004 0 00-.82 1.55 2.983 2.983 0 00.188 1.74 3.03 3.03 0 001.133 1.344c.503.327 1.094.5 1.697.496a3.048 3.048 0 002.165-.898 2.984 2.984 0 00.868-2.157zm23.955 0a3.004 3.004 0 00-.534-1.668 3.053 3.053 0 00-1.381-1.094 3.088 3.088 0 00-1.763-.153c-.59.122-1.13.414-1.553.84a2.991 2.991 0 00-.632 3.29 3.03 3.03 0 001.133 1.344 3.08 3.08 0 001.697.496 3.063 3.063 0 002.166-.898 2.966 2.966 0 00.867-2.157zm23.975 0a2.975 2.975 0 00-.158-1.227 3.014 3.014 0 00-.642-1.06 3.081 3.081 0 00-3.467-.717 3.04 3.04 0 00-1.661 1.777 3 3 0 00.814 3.203 3.073 3.073 0 002.071.801c.768 0 1.507-.286 2.071-.801a3 3 0 00.972-1.976zm-47.93-29.046a2.998 2.998 0 00-.507-1.683 3.046 3.046 0 00-1.369-1.12 3.08 3.08 0 00-3.335.65 3.01 3.01 0 00-.836 1.55 2.98 2.98 0 00.178 1.747 3.02 3.02 0 001.133 1.354c.504.33 1.097.504 1.703.5.804 0 1.575-.316 2.144-.878a2.98 2.98 0 00.889-2.12zm23.955 0a2.99 2.99 0 00-.506-1.683 3.051 3.051 0 00-1.369-1.12 3.083 3.083 0 00-3.336.651 2.988 2.988 0 00-.658 3.296 3.026 3.026 0 001.133 1.354c.505.33 1.098.504 1.703.5.804 0 1.576-.316 2.145-.878a2.98 2.98 0 00.888-2.12zm23.975 0a2.989 2.989 0 00-.8-2.287 3.084 3.084 0 00-4.485 0 3.006 3.006 0 00-.801 2.287c.061.756.408 1.462.972 1.977a3.073 3.073 0 002.071.801c.768 0 1.507-.286 2.071-.801a3.005 3.005 0 00.972-1.977zm-47.931-29.007a3.003 3.003 0 00-.972-1.977 3.071 3.071 0 00-2.071-.801 3.07 3.07 0 00-2.07.801 3.003 3.003 0 00-.972 1.977 2.99 2.99 0 00.8 2.286 3.063 3.063 0 002.242.971 3.08 3.08 0 002.243-.971 3.005 3.005 0 00.8-2.286zm23.956 0c0-.808-.325-1.583-.902-2.154a3.101 3.101 0 00-2.179-.892c-.817 0-1.601.321-2.179.892a3.028 3.028 0 00-.903 2.154c-.033.415.021.832.158 1.226a3.043 3.043 0 001.661 1.778 3.084 3.084 0 003.467-.718 3.006 3.006 0 00.8-2.286h.077zm23.975 0a2.993 2.993 0 00-.484-1.688 3.043 3.043 0 00-1.351-1.136 3.078 3.078 0 00-3.341.6 3.004 3.004 0 00-.86 1.534 2.975 2.975 0 00.148 1.747 3.021 3.021 0 001.106 1.372 3.084 3.084 0 001.691.531 3.05 3.05 0 002.169-.844 2.975 2.975 0 00.922-2.116zM20.381 104.419a2.99 2.99 0 00-.518-1.682 3.043 3.043 0 00-1.38-1.11 3.083 3.083 0 00-3.333.68 2.986 2.986 0 00-.624 3.307c.24.55.64 1.018 1.15 1.342a3.07 3.07 0 001.711.48 3.05 3.05 0 002.127-.898 2.98 2.98 0 00.867-2.119zm24.053 0c0-.596-.18-1.18-.515-1.676a3.043 3.043 0 00-1.37-1.111 3.084 3.084 0 00-3.326.654 3.004 3.004 0 00-.836 1.545 2.984 2.984 0 00.174 1.743 3.03 3.03 0 001.124 1.354 3.075 3.075 0 003.854-.375 3.002 3.002 0 00.895-2.134zm23.878 0c0-.596-.18-1.18-.515-1.676a3.043 3.043 0 00-1.37-1.111 3.084 3.084 0 00-3.326.654 3.004 3.004 0 00-.835 1.545 2.983 2.983 0 00.173 1.743 3.029 3.029 0 001.124 1.354 3.075 3.075 0 003.855-.375 3.002 3.002 0 00.894-2.134zM20.381 75.373a2.993 2.993 0 00-.537-1.671 3.047 3.047 0 00-1.387-1.094 3.086 3.086 0 00-1.768-.146 3.062 3.062 0 00-1.552.85c-.42.43-.703.973-.81 1.56a2.985 2.985 0 00.203 1.743 3.027 3.027 0 001.15 1.336 3.08 3.08 0 001.707.478 3.063 3.063 0 002.14-.912 2.992 2.992 0 00.854-2.144zm24.053 0a2.985 2.985 0 00-.8-2.287 3.083 3.083 0 00-4.485 0 2.985 2.985 0 00-.8 2.287 3 3 0 00.971 1.977 3.07 3.07 0 002.07.8c.768 0 1.508-.285 2.072-.8.563-.515.91-1.22.971-1.977zm23.878 0a2.984 2.984 0 00-.8-2.287 3.082 3.082 0 00-4.485 0 3.01 3.01 0 00-.8 2.287 3 3 0 00.971 1.977 3.07 3.07 0 002.071.8c.767 0 1.507-.285 2.07-.8a3 3 0 00.973-1.977zM20.381 46.328a2.992 2.992 0 00-.509-1.687c-.335-.5-.814-.89-1.375-1.12a3.085 3.085 0 00-3.34.669c-.427.427-.714.97-.827 1.56a2.985 2.985 0 00.194 1.75c.24.55.64 1.019 1.15 1.344.51.326 1.106.493 1.713.482a3.05 3.05 0 002.12-.891 2.98 2.98 0 00.874-2.107zm24.053 0a2.983 2.983 0 00-.8-2.287 3.083 3.083 0 00-4.485 0 3.01 3.01 0 00-.801 2.287c.061.756.408 1.462.972 1.977a3.07 3.07 0 002.07.8c.768 0 1.508-.285 2.072-.8.563-.515.91-1.22.971-1.977zm23.878 0a2.985 2.985 0 00-.8-2.287 3.083 3.083 0 00-4.485 0 3.01 3.01 0 00-.8 2.287 3 3 0 00.971 1.977 3.07 3.07 0 002.07.8 3.07 3.07 0 002.072-.8c.564-.515.91-1.22.972-1.977zM20.381 17.32a3.005 3.005 0 00-.972-1.977 3.072 3.072 0 00-2.07-.8c-.768 0-1.508.286-2.072.8a3.004 3.004 0 00-.971 1.977 2.985 2.985 0 00.8 2.287c.286.306.632.55 1.018.717a3.084 3.084 0 003.467-.717 3.01 3.01 0 00.8-2.287zm24.053 0c0-.597-.18-1.18-.515-1.676a3.045 3.045 0 00-1.37-1.111 3.086 3.086 0 00-1.763-.172 3.064 3.064 0 00-1.563.826 2.985 2.985 0 00-.662 3.288 3.025 3.025 0 001.124 1.354 3.077 3.077 0 001.696.508 3.062 3.062 0 002.164-.878 2.995 2.995 0 00.889-2.139zm23.878 0c0-.597-.18-1.18-.515-1.676a3.045 3.045 0 00-1.37-1.111 3.086 3.086 0 00-1.763-.172 3.064 3.064 0 00-1.563.826c-.427.422-.718.96-.835 1.545a2.984 2.984 0 00.173 1.743 3.024 3.024 0 001.124 1.354 3.077 3.077 0 001.696.508 3.061 3.061 0 002.164-.878 2.997 2.997 0 00.889-2.139z" fill="#ECB548"/><path d="M68.312 104.419c0-.596-.18-1.18-.515-1.676a3.043 3.043 0 00-1.37-1.111 3.084 3.084 0 00-3.326.654 3.004 3.004 0 00-.835 1.545 2.983 2.983 0 00.173 1.743 3.029 3.029 0 001.124 1.354 3.075 3.075 0 003.855-.375 3.002 3.002 0 00.894-2.134zm23.955 0c0-.597-.18-1.181-.516-1.678a3.044 3.044 0 00-1.373-1.111 3.084 3.084 0 00-1.766-.169 3.064 3.064 0 00-1.562.832 2.985 2.985 0 00-.65 3.294 3.024 3.024 0 001.133 1.35 3.07 3.07 0 001.701.499 3.062 3.062 0 002.152-.884 2.998 2.998 0 00.881-2.133zm23.975 0c0-.596-.179-1.18-.515-1.676a3.043 3.043 0 00-1.369-1.111 3.085 3.085 0 00-1.764-.172 3.062 3.062 0 00-1.563.826 3.005 3.005 0 00-.835 1.545 2.982 2.982 0 00.173 1.743 3.037 3.037 0 001.125 1.354 3.074 3.074 0 003.854-.375 3.003 3.003 0 00.894-2.134zm23.955 0c0-.597-.179-1.181-.515-1.678a3.052 3.052 0 00-1.373-1.111 3.086 3.086 0 00-1.767-.169 3.064 3.064 0 00-1.562.832 2.982 2.982 0 00-.649 3.294 3.026 3.026 0 001.132 1.35c.505.33 1.097.503 1.701.499a3.07 3.07 0 002.146-.89 3 3 0 00.887-2.127zm24.014 0c0-.595-.178-1.177-.512-1.672a3.051 3.051 0 00-1.364-1.112 3.09 3.09 0 00-1.758-.178 3.062 3.062 0 00-1.563.816 2.987 2.987 0 00-.687 3.275 3.036 3.036 0 001.108 1.362 3.07 3.07 0 001.685.526 3.047 3.047 0 002.189-.864 2.993 2.993 0 00.902-2.153zm23.897 0c0-.597-.179-1.181-.516-1.678a3.042 3.042 0 00-1.373-1.111 3.082 3.082 0 00-1.766-.169 3.064 3.064 0 00-1.562.832 3 3 0 00-.831 1.549 2.982 2.982 0 00.181 1.745 3.028 3.028 0 001.133 1.35c.505.33 1.097.503 1.701.499a3.06 3.06 0 002.152-.884 2.998 2.998 0 00.881-2.133zm23.975 0c0-.596-.179-1.18-.514-1.676a3.045 3.045 0 00-1.37-1.111 3.085 3.085 0 00-1.764-.172 3.062 3.062 0 00-1.563.826 3.005 3.005 0 00-.835 1.545 2.983 2.983 0 00.174 1.743 3.028 3.028 0 001.124 1.354 3.074 3.074 0 003.854-.375 3.003 3.003 0 00.894-2.134zm23.956 0c0-.596-.18-1.18-.515-1.676a3.04 3.04 0 00-1.37-1.111 3.082 3.082 0 00-3.326.654 2.99 2.99 0 00-.662 3.288 3.028 3.028 0 001.124 1.354 3.074 3.074 0 003.854-.375 3 3 0 00.895-2.134zm23.955 0c0-.597-.179-1.18-.514-1.676a3.05 3.05 0 00-1.37-1.111 3.085 3.085 0 00-1.764-.172 3.062 3.062 0 00-1.563.826 3.005 3.005 0 00-.835 1.545 2.983 2.983 0 00.174 1.743 3.028 3.028 0 001.124 1.354 3.073 3.073 0 001.696.508 3.053 3.053 0 002.164-.878 2.97 2.97 0 00.888-2.139zm23.994 0c0-.596-.179-1.18-.514-1.676a3.045 3.045 0 00-1.37-1.111 3.085 3.085 0 00-1.764-.172 3.062 3.062 0 00-1.563.826 3.005 3.005 0 00-.835 1.545 2.983 2.983 0 00.174 1.743 3.028 3.028 0 001.124 1.354 3.074 3.074 0 003.854-.375 3.003 3.003 0 00.894-2.134zm23.936 0c0-.596-.179-1.18-.514-1.676a3.045 3.045 0 00-1.37-1.111 3.085 3.085 0 00-1.764-.172 3.062 3.062 0 00-1.563.826 3.012 3.012 0 00-.835 1.545 2.983 2.983 0 00.174 1.743 3.028 3.028 0 001.124 1.354 3.074 3.074 0 003.854-.375 3 3 0 00.894-2.134zm23.956 0c0-.597-.18-1.181-.516-1.678a3.042 3.042 0 00-1.373-1.111 3.084 3.084 0 00-1.766-.169 3.063 3.063 0 00-1.563.832 2.99 2.99 0 00-.649 3.294 3.021 3.021 0 001.133 1.35c.504.33 1.096.503 1.701.499a3.06 3.06 0 002.151-.884 2.998 2.998 0 00.882-2.133zM68.311 75.373a2.984 2.984 0 00-.8-2.287 3.082 3.082 0 00-4.485 0 3.009 3.009 0 00-.8 2.287 3 3 0 00.972 1.977 3.07 3.07 0 002.07.8 3.07 3.07 0 002.071-.8c.564-.515.911-1.22.972-1.977zm23.956 0a2.994 2.994 0 00-.534-1.668 3.046 3.046 0 00-1.381-1.094 3.085 3.085 0 00-3.316.687 2.986 2.986 0 00-.632 3.29 3.03 3.03 0 001.133 1.344 3.08 3.08 0 001.697.497 3.066 3.066 0 002.166-.899 2.994 2.994 0 00.867-2.157zm23.975 0a2.996 2.996 0 00-.533-1.666 3.049 3.049 0 00-1.378-1.094 3.084 3.084 0 00-3.313.678 2.992 2.992 0 00-.645 3.283c.233.55.624 1.019 1.125 1.349a3.076 3.076 0 003.864-.392 3.012 3.012 0 00.88-2.158zm23.955 0a2.997 2.997 0 00-.8-2.287 3.05 3.05 0 00-1.018-.717 3.084 3.084 0 00-3.467.717 3.011 3.011 0 00-.642 1.06 2.972 2.972 0 00-.158 1.227c.061.756.408 1.462.972 1.977a3.07 3.07 0 002.071.8 3.07 3.07 0 002.07-.8c.564-.515.911-1.22.972-1.977zm24.014 0a2.991 2.991 0 00-.531-1.662 3.044 3.044 0 00-1.371-1.094 3.085 3.085 0 00-3.309.661 3.01 3.01 0 00-.833 1.536 2.987 2.987 0 00.164 1.735c.226.55.612 1.02 1.108 1.355.496.335 1.08.517 1.681.525a3.065 3.065 0 002.203-.878 2.975 2.975 0 00.888-2.178zm23.897 0a2.987 2.987 0 00-.534-1.668 3.045 3.045 0 00-1.381-1.094 3.085 3.085 0 00-3.316.687 2.99 2.99 0 00-.632 3.29 3.03 3.03 0 001.133 1.344 3.08 3.08 0 001.697.497 3.05 3.05 0 002.166-.898c.282-.285.504-.622.653-.993a2.96 2.96 0 00.214-1.165zm23.975 0a2.972 2.972 0 00-.158-1.226 3.011 3.011 0 00-.642-1.06 3.08 3.08 0 00-4.485 0 2.997 2.997 0 00.172 4.263 3.07 3.07 0 002.07.8 3.07 3.07 0 002.071-.8c.564-.515.911-1.22.972-1.977zm23.956 0a3.006 3.006 0 00-1.819-3.004 3.084 3.084 0 00-3.467.717 2.989 2.989 0 00.172 4.264 3.07 3.07 0 002.071.8c.767 0 1.507-.285 2.071-.8.564-.515.911-1.22.972-1.977zm23.955 0a2.996 2.996 0 00-.533-1.666 3.044 3.044 0 00-1.378-1.094 3.085 3.085 0 00-3.313.678 2.991 2.991 0 00-.645 3.283c.233.55.624 1.019 1.125 1.349.501.33 1.09.506 1.692.506a3.064 3.064 0 002.178-.892 2.998 2.998 0 00.874-2.164zm23.994 0a2.998 2.998 0 00-.532-1.664 3.044 3.044 0 00-1.374-1.094 3.086 3.086 0 00-1.758-.16 3.064 3.064 0 00-1.553.83 3.006 3.006 0 00-.829 1.54 2.985 2.985 0 00.172 1.736 3.02 3.02 0 001.116 1.352 3.075 3.075 0 003.871-.375 3.01 3.01 0 00.887-2.165zm23.936 0a2.972 2.972 0 00-.158-1.226 3.011 3.011 0 00-.642-1.06 3.08 3.08 0 00-4.485 0 2.997 2.997 0 00.172 4.263 3.07 3.07 0 002.07.8 3.07 3.07 0 002.071-.8c.564-.515.911-1.22.972-1.977zm23.956 0a2.995 2.995 0 00-.535-1.668 3.045 3.045 0 00-1.381-1.094 3.084 3.084 0 00-3.315.687 3.004 3.004 0 00-.82 1.55 2.982 2.982 0 00.188 1.74 3.024 3.024 0 001.133 1.344 3.08 3.08 0 001.697.497 3.066 3.066 0 002.165-.899 2.98 2.98 0 00.868-2.157zM68.311 46.328a2.983 2.983 0 00-.8-2.287 3.082 3.082 0 00-4.485 0 3.008 3.008 0 00-.8 2.287 3 3 0 00.972 1.977 3.07 3.07 0 002.07.8 3.07 3.07 0 002.071-.8c.564-.515.911-1.22.972-1.977zm23.956 0a2.992 2.992 0 00-.506-1.684 3.041 3.041 0 00-1.37-1.119 3.086 3.086 0 00-3.335.65 3.01 3.01 0 00-.836 1.55 2.986 2.986 0 00.178 1.747 3.025 3.025 0 001.133 1.354c.505.33 1.098.504 1.703.5.805 0 1.576-.316 2.145-.878a2.98 2.98 0 00.888-2.12zm23.975 0a2.991 2.991 0 00-.505-1.681 3.041 3.041 0 00-1.366-1.12 3.085 3.085 0 00-3.333.642 2.984 2.984 0 00-.67 3.29c.23.553.621 1.025 1.124 1.357a3.076 3.076 0 003.849-.367 3 3 0 00.901-2.121zm23.955 0a2.996 2.996 0 00-.8-2.287 3.05 3.05 0 00-1.018-.717 3.084 3.084 0 00-3.467.717 3.01 3.01 0 00-.8 2.287c.061.756.408 1.462.972 1.977a3.07 3.07 0 002.071.8 3.07 3.07 0 002.07-.8c.564-.515.911-1.22.972-1.977zm24.014 0a2.991 2.991 0 00-.507-1.684 3.039 3.039 0 00-1.369-1.119 3.083 3.083 0 00-3.335.65 2.99 2.99 0 00-.658 3.297 3.03 3.03 0 001.133 1.354c.505.33 1.097.504 1.703.5a3.05 3.05 0 002.144-.878 2.98 2.98 0 00.889-2.12zm23.897 0a2.99 2.99 0 00-.506-1.684 3.044 3.044 0 00-1.369-1.119 3.087 3.087 0 00-1.768-.176 3.061 3.061 0 00-1.567.826c-.428.424-.72.963-.837 1.55a2.982 2.982 0 00.179 1.747 3.021 3.021 0 001.132 1.354c.505.33 1.098.504 1.703.5.805 0 1.576-.316 2.145-.878a2.98 2.98 0 00.888-2.12zm23.975 0a3.01 3.01 0 00-.8-2.287 3.08 3.08 0 00-4.485 0 2.996 2.996 0 00.172 4.264 3.07 3.07 0 002.07.8 3.07 3.07 0 002.071-.8c.564-.515.911-1.22.972-1.977zm23.956 0a3.005 3.005 0 00-1.819-3.004 3.084 3.084 0 00-3.467.717 3.01 3.01 0 00-.8 2.287c.061.756.408 1.462.972 1.977a3.07 3.07 0 002.071.8c.767 0 1.507-.285 2.071-.8.564-.515.911-1.22.972-1.977zm23.955 0a2.991 2.991 0 00-.505-1.681 3.041 3.041 0 00-1.366-1.12 3.085 3.085 0 00-3.333.642 2.984 2.984 0 00-.67 3.29c.23.552.621 1.025 1.124 1.357.502.333 1.093.51 1.698.51a3.06 3.06 0 002.157-.871 2.997 2.997 0 00.895-2.127zm23.994 0a2.991 2.991 0 00-.505-1.681 3.041 3.041 0 00-1.366-1.12 3.085 3.085 0 00-3.333.642 2.984 2.984 0 00-.67 3.29c.23.553.622 1.025 1.124 1.357a3.076 3.076 0 003.849-.367 3 3 0 00.901-2.121zm23.936 0a3.01 3.01 0 00-.8-2.287 3.08 3.08 0 00-4.485 0 2.996 2.996 0 00.172 4.264 3.07 3.07 0 002.07.8 3.07 3.07 0 002.071-.8c.564-.515.911-1.22.972-1.977zm23.956 0a2.999 2.999 0 00-.507-1.684 3.044 3.044 0 00-1.369-1.119 3.083 3.083 0 00-3.335.65 3.005 3.005 0 00-.836 1.55 2.982 2.982 0 00.178 1.747 3.023 3.023 0 001.133 1.354c.504.33 1.097.504 1.703.5a3.05 3.05 0 002.144-.878 2.98 2.98 0 00.889-2.12zM68.312 17.32c0-.597-.18-1.18-.515-1.676a3.046 3.046 0 00-1.37-1.111 3.086 3.086 0 00-1.763-.172 3.064 3.064 0 00-1.563.826c-.427.422-.718.96-.835 1.545a2.984 2.984 0 00.173 1.743 3.024 3.024 0 001.124 1.354 3.077 3.077 0 001.696.508 3.061 3.061 0 002.164-.878 2.997 2.997 0 00.889-2.139zm23.955 0a3.005 3.005 0 00-.972-1.977 3.072 3.072 0 00-2.07-.8c-.768 0-1.507.286-2.071.8a3.004 3.004 0 00-.972 1.977 2.985 2.985 0 00.8 2.287 3.084 3.084 0 004.485 0 3.01 3.01 0 00.8-2.287zm23.975 0c0-.597-.179-1.18-.515-1.676a3.045 3.045 0 00-1.369-1.111 3.088 3.088 0 00-1.764-.172 3.065 3.065 0 00-1.563.826c-.427.422-.717.96-.835 1.545a2.983 2.983 0 00.173 1.743 3.032 3.032 0 001.125 1.354 3.077 3.077 0 001.696.508 3.065 3.065 0 002.164-.878 2.987 2.987 0 00.888-2.14zm23.955 0c.012-.6-.158-1.19-.487-1.693a3.043 3.043 0 00-1.361-1.137 3.082 3.082 0 00-3.348.626c-.432.421-.727.96-.847 1.549a2.981 2.981 0 00.171 1.752 3.034 3.034 0 001.132 1.36c.506.332 1.1.507 1.707.503a3.05 3.05 0 002.131-.864 2.98 2.98 0 00.902-2.096zm24.014 0a3.004 3.004 0 00-.972-1.977 3.072 3.072 0 00-2.071-.8c-.768 0-1.507.286-2.071.8a3.004 3.004 0 00-.972 1.977 3.005 3.005 0 001.819 3.004 3.086 3.086 0 003.467-.717 3.005 3.005 0 00.8-2.287zm23.897 0a3.004 3.004 0 00-.972-1.977 3.071 3.071 0 00-2.07-.8c-.768 0-1.507.286-2.071.8a3.004 3.004 0 00-.972 1.977 2.997 2.997 0 00.8 2.286 3.056 3.056 0 002.243.971 3.077 3.077 0 002.242-.97c.286-.306.504-.667.642-1.06.138-.394.192-.812.158-1.227zm23.975 0c0-.597-.179-1.18-.514-1.676a3.047 3.047 0 00-1.37-1.111 3.088 3.088 0 00-1.764-.172 3.065 3.065 0 00-1.563.826c-.427.422-.717.96-.835 1.545a2.983 2.983 0 00.174 1.743 3.024 3.024 0 001.124 1.354 3.077 3.077 0 001.696.508 3.065 3.065 0 002.164-.878 2.969 2.969 0 00.888-2.14zm23.956 0c0-.597-.179-1.18-.515-1.676a3.042 3.042 0 00-1.37-1.111 3.084 3.084 0 00-3.326.654 2.991 2.991 0 00-.662 3.288 3.024 3.024 0 001.124 1.354 3.077 3.077 0 001.696.508 3.057 3.057 0 002.164-.878 2.987 2.987 0 00.889-2.139zm23.955 0a3.004 3.004 0 00-.972-1.977 3.072 3.072 0 00-2.071-.8c-.767 0-1.507.286-2.071.8a3.007 3.007 0 00-.971 1.977 2.997 2.997 0 00.8 2.287 3.052 3.052 0 002.242.97 3.082 3.082 0 002.243-.97 2.988 2.988 0 00.8-2.287zm23.994 0c0-.597-.179-1.18-.514-1.676a3.053 3.053 0 00-1.37-1.111 3.088 3.088 0 00-1.764-.172 3.065 3.065 0 00-1.563.826c-.427.422-.717.96-.835 1.545a2.983 2.983 0 00.174 1.743 3.024 3.024 0 001.124 1.354 3.077 3.077 0 001.696.508 3.065 3.065 0 002.164-.878 2.969 2.969 0 00.888-2.14zm23.936 0c0-.597-.179-1.18-.514-1.676a3.047 3.047 0 00-1.37-1.111 3.088 3.088 0 00-1.764-.172 3.065 3.065 0 00-1.563.826c-.427.422-.717.96-.835 1.545a2.983 2.983 0 00.174 1.743 3.024 3.024 0 001.124 1.354 3.077 3.077 0 001.696.508 3.065 3.065 0 002.164-.878 2.987 2.987 0 00.888-2.139zm23.956 0a3.004 3.004 0 00-.972-1.977 3.074 3.074 0 00-2.071-.8c-.768 0-1.507.286-2.071.8a2.988 2.988 0 00-.172 4.264 3.056 3.056 0 002.243.97c.421 0 .838-.086 1.224-.253a3.042 3.042 0 001.661-1.778c.137-.393.191-.81.158-1.226z" fill="#ECB548"/><path d="M331.88 104.419c0-.597-.18-1.181-.516-1.678a3.042 3.042 0 00-1.373-1.111 3.084 3.084 0 00-1.766-.169 3.063 3.063 0 00-1.563.832 2.99 2.99 0 00-.649 3.294 3.021 3.021 0 001.133 1.35c.504.33 1.096.503 1.701.499a3.06 3.06 0 002.151-.884 2.998 2.998 0 00.882-2.133zm23.955 0c0-.597-.179-1.181-.516-1.678a3.042 3.042 0 00-1.373-1.111 3.083 3.083 0 00-1.766-.169 3.064 3.064 0 00-1.562.832 2.992 2.992 0 00.483 4.644c.505.33 1.097.503 1.701.499a3.06 3.06 0 002.152-.884 2.998 2.998 0 00.881-2.133zm23.975 0c0-.595-.178-1.177-.512-1.672a3.045 3.045 0 00-1.364-1.112 3.09 3.09 0 00-1.758-.178 3.067 3.067 0 00-1.563.815 3.008 3.008 0 00-.844 1.535 2.977 2.977 0 00.157 1.74 3.03 3.03 0 001.108 1.362 3.073 3.073 0 002.865.309 3.053 3.053 0 001.675-1.635 2.99 2.99 0 00.236-1.164zm-47.93-29.046a2.995 2.995 0 00-.535-1.668 3.045 3.045 0 00-1.381-1.094 3.084 3.084 0 00-3.315.687 3.004 3.004 0 00-.82 1.55 2.982 2.982 0 00.188 1.74 3.024 3.024 0 001.133 1.344 3.08 3.08 0 001.697.497 3.066 3.066 0 002.165-.899 2.98 2.98 0 00.868-2.157zm23.955 0a3.002 3.002 0 00-.534-1.668 3.05 3.05 0 00-1.381-1.094 3.085 3.085 0 00-3.316.687 2.99 2.99 0 00-.632 3.29 3.024 3.024 0 001.133 1.344 3.08 3.08 0 001.697.497 3.066 3.066 0 002.166-.899 2.988 2.988 0 00.867-2.157zm23.975 0a2.972 2.972 0 00-.158-1.226 3.011 3.011 0 00-.642-1.06 3.08 3.08 0 00-4.485 0 3.006 3.006 0 00-.801 2.287c.061.755.408 1.461.972 1.976.564.515 1.304.8 2.071.8a3.07 3.07 0 002.071-.8c.564-.515.911-1.22.972-1.977zm-47.93-29.045a2.999 2.999 0 00-.507-1.684 3.04 3.04 0 00-1.369-1.12 3.083 3.083 0 00-3.335.65 3.005 3.005 0 00-.836 1.55 2.982 2.982 0 00.178 1.748 3.023 3.023 0 001.133 1.353c.504.33 1.097.504 1.703.5a3.05 3.05 0 002.144-.878 2.98 2.98 0 00.889-2.12zm23.955 0a2.99 2.99 0 00-.506-1.684 3.048 3.048 0 00-1.369-1.12 3.087 3.087 0 00-3.336.65 2.99 2.99 0 00-.658 3.297 3.03 3.03 0 001.133 1.354c.505.33 1.098.504 1.703.5a3.05 3.05 0 002.145-.878 2.98 2.98 0 00.888-2.12zm23.975 0a2.989 2.989 0 00-.8-2.287 3.084 3.084 0 00-3.467-.717 3.04 3.04 0 00-1.661 1.777 3.006 3.006 0 00-.158 1.227 3 3 0 00.972 1.976 3.075 3.075 0 004.142.001 3.005 3.005 0 00.972-1.977zM331.879 17.32a3.004 3.004 0 00-.972-1.977 3.072 3.072 0 00-2.071-.8c-.767 0-1.506.286-2.07.8a3.004 3.004 0 00-.972 1.977 2.997 2.997 0 00.8 2.287 3.062 3.062 0 002.242.97 3.082 3.082 0 002.243-.97c.286-.306.504-.667.642-1.06.138-.394.192-.812.158-1.227zm23.956 0c0-.808-.325-1.582-.902-2.154a3.1 3.1 0 00-2.179-.892 3.1 3.1 0 00-2.179.892 3.028 3.028 0 00-.903 2.154 3.005 3.005 0 001.819 3.004 3.086 3.086 0 003.467-.717 3.005 3.005 0 00.8-2.287h.077zm23.975 0a2.993 2.993 0 00-.484-1.687 3.042 3.042 0 00-1.351-1.137 3.086 3.086 0 00-3.341.6 3.01 3.01 0 00-.86 1.534 2.978 2.978 0 00.148 1.748 3.021 3.021 0 001.106 1.37 3.076 3.076 0 001.691.532 3.068 3.068 0 002.169-.844 2.974 2.974 0 00.922-2.116z" fill="#ECB548"/></svg>