<svg width="270" height="85" fill="none" xmlns="http://www.w3.org/2000/svg"><path d="M2.075-128.837A2.074 2.074 0 010-130.912C0-132.06.928-133 2.075-133c1.147 0 2.075.928 2.075 2.088a2.073 2.073 0 01-2.075 2.075zm0 21.385A2.074 2.074 0 010-109.527c0-1.148.928-2.075 2.075-2.075 1.147 0 2.075.927 2.075 2.075a2.073 2.073 0 01-2.075 2.075zm0 21.385A2.073 2.073 0 010-88.142c0-1.148.928-2.075 2.075-2.075 1.147 0 2.075.927 2.075 2.075a2.073 2.073 0 01-2.075 2.075zm0 21.385A2.073 2.073 0 010-66.757c0-1.148.928-2.075 2.075-2.075 1.147 0 2.075.927 2.075 2.075a2.073 2.073 0 01-2.075 2.075zm0 21.372A2.073 2.073 0 010-45.385c0-1.147.928-2.075 2.075-2.075 1.147 0 2.075.928 2.075 2.075 0 1.16-.928 2.075-2.075 2.075zm0 21.385A2.073 2.073 0 010-24c0-1.147.928-2.075 2.075-2.075 1.147 0 2.075.928 2.075 2.075a2.073 2.073 0 01-2.075 2.075zm0 21.385A2.073 2.073 0 010-2.615C0-3.762.928-4.69 2.075-4.69c1.147 0 2.075.928 2.075 2.075A2.073 2.073 0 012.075-.54zm0 21.398A2.076 2.076 0 010 18.77c0-1.147.928-2.075 2.075-2.075 1.147 0 2.075.928 2.075 2.075a2.084 2.084 0 01-2.075 2.088zm0 21.372A2.073 2.073 0 010 40.155c0-1.147.928-2.075 2.075-2.075 1.147 0 2.075.928 2.075 2.075a2.073 2.073 0 01-2.075 2.075zm0 21.385A2.073 2.073 0 010 61.54c0-1.147.928-2.075 2.075-2.075 1.147 0 2.075.928 2.075 2.075a2.073 2.073 0 01-2.075 2.075zm0 21.385A2.073 2.073 0 010 82.925c0-1.147.928-2.075 2.075-2.075 1.147 0 2.075.928 2.075 2.075A2.073 2.073 0 012.075 85zM26.78-128.838a2.073 2.073 0 01-2.075-2.075c0-1.147.928-2.087 2.075-2.087 1.147 0 2.075.928 2.075 2.087a2.073 2.073 0 01-2.075 2.075zm0 21.385a2.073 2.073 0 01-2.075-2.075c0-1.147.928-2.075 2.075-2.075 1.147 0 2.075.928 2.075 2.075a2.073 2.073 0 01-2.075 2.075zm0 21.385a2.073 2.073 0 01-2.075-2.075c0-1.147.928-2.075 2.075-2.075 1.147 0 2.075.928 2.075 2.075a2.073 2.073 0 01-2.075 2.075zm0 21.385a2.073 2.073 0 01-2.075-2.075c0-1.147.928-2.075 2.075-2.075 1.147 0 2.075.928 2.075 2.075a2.073 2.073 0 01-2.075 2.075zm0 21.373a2.073 2.073 0 01-2.075-2.075c0-1.148.928-2.075 2.075-2.075 1.147 0 2.075.928 2.075 2.075 0 1.16-.928 2.075-2.075 2.075zm0 21.385A2.073 2.073 0 0124.705-24c0-1.148.928-2.075 2.075-2.075 1.147 0 2.075.927 2.075 2.075a2.073 2.073 0 01-2.075 2.075zm0 21.385a2.073 2.073 0 01-2.075-2.075c0-1.148.928-2.075 2.075-2.075 1.147 0 2.075.927 2.075 2.075A2.073 2.073 0 0126.78-.54zm0 21.397a2.076 2.076 0 01-2.075-2.087c0-1.148.928-2.075 2.075-2.075 1.147 0 2.075.927 2.075 2.075a2.084 2.084 0 01-2.075 2.087zm0 21.373a2.073 2.073 0 01-2.075-2.075c0-1.148.928-2.075 2.075-2.075 1.147 0 2.075.927 2.075 2.075a2.073 2.073 0 01-2.075 2.075zm0 21.385a2.073 2.073 0 01-2.075-2.075c0-1.148.928-2.075 2.075-2.075 1.147 0 2.075.927 2.075 2.075a2.073 2.073 0 01-2.075 2.075zm0 21.385a2.073 2.073 0 01-2.075-2.075c0-1.148.928-2.075 2.075-2.075 1.147 0 2.075.927 2.075 2.075A2.073 2.073 0 0126.78 85zm24.717-213.838a2.073 2.073 0 01-2.075-2.075c0-1.147.928-2.087 2.075-2.087 1.148 0 2.075.928 2.075 2.087a2.073 2.073 0 01-2.075 2.075zm0 21.385a2.073 2.073 0 01-2.075-2.075c0-1.147.928-2.075 2.075-2.075 1.148 0 2.075.928 2.075 2.075a2.073 2.073 0 01-2.075 2.075zm0 21.385a2.073 2.073 0 01-2.075-2.075c0-1.147.928-2.075 2.075-2.075 1.148 0 2.075.928 2.075 2.075a2.073 2.073 0 01-2.075 2.075zm0 21.385a2.073 2.073 0 01-2.075-2.075c0-1.147.928-2.075 2.075-2.075 1.148 0 2.075.928 2.075 2.075a2.073 2.073 0 01-2.075 2.075zm0 21.373a2.073 2.073 0 01-2.075-2.075c0-1.148.928-2.075 2.075-2.075 1.148 0 2.075.928 2.075 2.075 0 1.16-.927 2.075-2.075 2.075zm0 21.385A2.073 2.073 0 0149.422-24c0-1.148.928-2.075 2.075-2.075 1.148 0 2.075.927 2.075 2.075a2.073 2.073 0 01-2.075 2.075zm0 21.385a2.073 2.073 0 01-2.075-2.075c0-1.148.928-2.075 2.075-2.075 1.148 0 2.075.927 2.075 2.075A2.073 2.073 0 0151.497-.54zm0 21.397a2.076 2.076 0 01-2.075-2.087c0-1.148.928-2.075 2.075-2.075 1.148 0 2.075.927 2.075 2.075a2.084 2.084 0 01-2.075 2.087zm0 21.373a2.073 2.073 0 01-2.075-2.075c0-1.148.928-2.075 2.075-2.075 1.148 0 2.075.927 2.075 2.075a2.073 2.073 0 01-2.075 2.075zm0 21.385a2.073 2.073 0 01-2.075-2.075c0-1.148.928-2.075 2.075-2.075 1.148 0 2.075.927 2.075 2.075a2.073 2.073 0 01-2.075 2.075zm0 21.385a2.073 2.073 0 01-2.075-2.075c0-1.148.928-2.075 2.075-2.075 1.148 0 2.075.927 2.075 2.075A2.073 2.073 0 0151.497 85zm94.772-213.837a2.074 2.074 0 01-2.076-2.075c0-1.148.928-2.088 2.076-2.088 1.147 0 2.075.928 2.075 2.088a2.074 2.074 0 01-2.075 2.075zm0 21.385a2.074 2.074 0 110-4.15c1.147 0 2.075.927 2.075 2.075a2.074 2.074 0 01-2.075 2.075zm0 21.385a2.074 2.074 0 01-2.076-2.075c0-1.148.928-2.075 2.076-2.075 1.147 0 2.075.927 2.075 2.075a2.074 2.074 0 01-2.075 2.075zm0 21.385a2.074 2.074 0 01-2.076-2.075c0-1.148.928-2.075 2.076-2.075 1.147 0 2.075.927 2.075 2.075a2.073 2.073 0 01-2.075 2.075zm0 21.372a2.074 2.074 0 01-2.076-2.075c0-1.147.928-2.075 2.076-2.075 1.147 0 2.075.928 2.075 2.075 0 1.16-.928 2.075-2.075 2.075zm0 21.385A2.074 2.074 0 01144.193-24c0-1.147.928-2.075 2.076-2.075 1.147 0 2.075.928 2.075 2.075a2.074 2.074 0 01-2.075 2.075zm0 21.385a2.074 2.074 0 01-2.076-2.075c0-1.147.928-2.075 2.076-2.075 1.147 0 2.075.928 2.075 2.075a2.074 2.074 0 01-2.075 2.075zm0 21.398a2.076 2.076 0 01-2.076-2.088c0-1.147.928-2.075 2.076-2.075 1.147 0 2.075.928 2.075 2.075a2.084 2.084 0 01-2.075 2.088zm0 21.372a2.074 2.074 0 01-2.076-2.075c0-1.147.928-2.075 2.076-2.075 1.147 0 2.075.928 2.075 2.075a2.074 2.074 0 01-2.075 2.075zm0 21.385a2.074 2.074 0 01-2.076-2.075c0-1.147.928-2.075 2.076-2.075 1.147 0 2.075.928 2.075 2.075a2.073 2.073 0 01-2.075 2.075zm0 21.385a2.074 2.074 0 01-2.076-2.075c0-1.147.928-2.075 2.076-2.075 1.147 0 2.075.928 2.075 2.075A2.073 2.073 0 01146.269 85zm24.705-213.838a2.073 2.073 0 01-2.076-2.075c0-1.147.928-2.087 2.076-2.087 1.147 0 2.075.928 2.075 2.087a2.073 2.073 0 01-2.075 2.075zm0 21.385a2.074 2.074 0 110-4.15c1.147 0 2.075.928 2.075 2.075a2.073 2.073 0 01-2.075 2.075zm0 21.385a2.074 2.074 0 01-2.076-2.075c0-1.147.928-2.075 2.076-2.075 1.147 0 2.075.928 2.075 2.075a2.074 2.074 0 01-2.075 2.075zm0 21.385a2.074 2.074 0 01-2.076-2.075c0-1.147.928-2.075 2.076-2.075 1.147 0 2.075.928 2.075 2.075a2.074 2.074 0 01-2.075 2.075zm0 21.373a2.074 2.074 0 01-2.076-2.075c0-1.148.928-2.075 2.076-2.075 1.147 0 2.075.928 2.075 2.075 0 1.16-.928 2.075-2.075 2.075zm0 21.385A2.074 2.074 0 01168.898-24c0-1.148.928-2.075 2.076-2.075 1.147 0 2.075.927 2.075 2.075a2.074 2.074 0 01-2.075 2.075zm0 21.385a2.074 2.074 0 01-2.076-2.075c0-1.148.928-2.075 2.076-2.075 1.147 0 2.075.927 2.075 2.075a2.074 2.074 0 01-2.075 2.075zm0 21.397a2.076 2.076 0 01-2.076-2.087c0-1.148.928-2.075 2.076-2.075 1.147 0 2.075.927 2.075 2.075a2.084 2.084 0 01-2.075 2.087zm0 21.373a2.074 2.074 0 01-2.076-2.075c0-1.148.928-2.075 2.076-2.075 1.147 0 2.075.927 2.075 2.075a2.074 2.074 0 01-2.075 2.075zm0 21.385a2.074 2.074 0 01-2.076-2.075c0-1.148.928-2.075 2.076-2.075 1.147 0 2.075.927 2.075 2.075a2.073 2.073 0 01-2.075 2.075zm0 21.385a2.074 2.074 0 01-2.076-2.075c0-1.148.928-2.075 2.076-2.075 1.147 0 2.075.927 2.075 2.075A2.073 2.073 0 01170.974 85zm24.717-213.838a2.072 2.072 0 01-2.075-2.075c0-1.147.927-2.087 2.075-2.087 1.147 0 2.075.928 2.075 2.087a2.073 2.073 0 01-2.075 2.075zm0 21.385a2.072 2.072 0 01-2.075-2.075c0-1.147.927-2.075 2.075-2.075 1.147 0 2.075.928 2.075 2.075a2.073 2.073 0 01-2.075 2.075zm0 21.385a2.073 2.073 0 01-2.075-2.075c0-1.147.927-2.075 2.075-2.075 1.147 0 2.075.928 2.075 2.075a2.074 2.074 0 01-2.075 2.075zm0 21.385a2.073 2.073 0 01-2.075-2.075c0-1.147.927-2.075 2.075-2.075 1.147 0 2.075.928 2.075 2.075a2.074 2.074 0 01-2.075 2.075zm0 21.373a2.073 2.073 0 01-2.075-2.075c0-1.148.927-2.075 2.075-2.075 1.147 0 2.075.928 2.075 2.075 0 1.16-.928 2.075-2.075 2.075zm0 21.385A2.073 2.073 0 01193.616-24c0-1.148.927-2.075 2.075-2.075 1.147 0 2.075.927 2.075 2.075a2.074 2.074 0 01-2.075 2.075zm0 21.385a2.073 2.073 0 01-2.075-2.075c0-1.148.927-2.075 2.075-2.075 1.147 0 2.075.927 2.075 2.075a2.074 2.074 0 01-2.075 2.075zm0 21.397a2.075 2.075 0 01-2.075-2.087c0-1.148.927-2.075 2.075-2.075 1.147 0 2.075.927 2.075 2.075a2.084 2.084 0 01-2.075 2.087zm0 21.373a2.073 2.073 0 01-2.075-2.075c0-1.148.927-2.075 2.075-2.075 1.147 0 2.075.927 2.075 2.075a2.074 2.074 0 01-2.075 2.075zm0 21.385a2.073 2.073 0 01-2.075-2.075c0-1.148.927-2.075 2.075-2.075 1.147 0 2.075.927 2.075 2.075a2.073 2.073 0 01-2.075 2.075zm0 21.385a2.073 2.073 0 01-2.075-2.075c0-1.148.927-2.075 2.075-2.075 1.147 0 2.075.927 2.075 2.075A2.073 2.073 0 01195.691 85zM74.09-128.837a2.074 2.074 0 01-2.074-2.075c0-1.148.927-2.088 2.075-2.088 1.147 0 2.075.928 2.075 2.088a2.073 2.073 0 01-2.075 2.075zm0 21.385a2.074 2.074 0 01-2.074-2.075c0-1.148.927-2.075 2.075-2.075 1.147 0 2.075.927 2.075 2.075a2.073 2.073 0 01-2.075 2.075zm0 21.385a2.073 2.073 0 01-2.074-2.075c0-1.148.927-2.075 2.075-2.075 1.147 0 2.075.927 2.075 2.075a2.073 2.073 0 01-2.075 2.075zm0 21.385a2.073 2.073 0 01-2.074-2.075c0-1.148.927-2.075 2.075-2.075 1.147 0 2.075.927 2.075 2.075a2.073 2.073 0 01-2.075 2.075zm0 21.372a2.073 2.073 0 01-2.074-2.075c0-1.147.927-2.075 2.075-2.075 1.147 0 2.075.928 2.075 2.075 0 1.16-.928 2.075-2.075 2.075zm0 21.385A2.073 2.073 0 0172.017-24c0-1.147.927-2.075 2.075-2.075 1.147 0 2.075.928 2.075 2.075a2.073 2.073 0 01-2.075 2.075zm0 21.385a2.073 2.073 0 01-2.074-2.075c0-1.147.927-2.075 2.075-2.075 1.147 0 2.075.928 2.075 2.075A2.073 2.073 0 0174.09-.54zm0 21.398a2.076 2.076 0 01-2.074-2.088c0-1.147.927-2.075 2.075-2.075 1.147 0 2.075.928 2.075 2.075a2.084 2.084 0 01-2.075 2.088zm0 21.372a2.073 2.073 0 01-2.074-2.075c0-1.147.927-2.075 2.075-2.075 1.147 0 2.075.928 2.075 2.075a2.073 2.073 0 01-2.075 2.075zm0 21.385a2.073 2.073 0 01-2.074-2.075c0-1.147.927-2.075 2.075-2.075 1.147 0 2.075.928 2.075 2.075a2.073 2.073 0 01-2.075 2.075zm0 21.385a2.073 2.073 0 01-2.074-2.075c0-1.147.927-2.075 2.075-2.075 1.147 0 2.075.928 2.075 2.075A2.073 2.073 0 0174.09 85zm24.706-213.838a2.073 2.073 0 01-2.075-2.075c0-1.147.927-2.087 2.075-2.087 1.147 0 2.075.928 2.075 2.087a2.073 2.073 0 01-2.075 2.075zm0 21.385a2.073 2.073 0 01-2.075-2.075c0-1.147.927-2.075 2.075-2.075 1.147 0 2.075.928 2.075 2.075a2.073 2.073 0 01-2.075 2.075zm0 21.385a2.073 2.073 0 01-2.075-2.075c0-1.147.927-2.075 2.075-2.075 1.147 0 2.075.928 2.075 2.075a2.074 2.074 0 01-2.075 2.075zm0 21.385a2.073 2.073 0 01-2.075-2.075c0-1.147.927-2.075 2.075-2.075 1.147 0 2.075.928 2.075 2.075a2.074 2.074 0 01-2.075 2.075zm0 21.373a2.073 2.073 0 01-2.075-2.075c0-1.148.927-2.075 2.075-2.075 1.147 0 2.075.928 2.075 2.075 0 1.16-.928 2.075-2.075 2.075zm0 21.385A2.073 2.073 0 0196.72-24c0-1.148.927-2.075 2.075-2.075 1.147 0 2.075.927 2.075 2.075a2.074 2.074 0 01-2.075 2.075zm0 21.385a2.073 2.073 0 01-2.075-2.075c0-1.148.927-2.075 2.075-2.075 1.147 0 2.075.927 2.075 2.075A2.074 2.074 0 0198.796-.54zm0 21.397a2.076 2.076 0 01-2.075-2.087c0-1.148.927-2.075 2.075-2.075 1.147 0 2.075.927 2.075 2.075a2.084 2.084 0 01-2.075 2.087zm0 21.373a2.073 2.073 0 01-2.075-2.075c0-1.148.927-2.075 2.075-2.075 1.147 0 2.075.927 2.075 2.075a2.074 2.074 0 01-2.075 2.075zm0 21.385a2.073 2.073 0 01-2.075-2.075c0-1.148.927-2.075 2.075-2.075 1.147 0 2.075.927 2.075 2.075a2.074 2.074 0 01-2.075 2.075zm0 21.385a2.073 2.073 0 01-2.075-2.075c0-1.148.927-2.075 2.075-2.075 1.147 0 2.075.927 2.075 2.075A2.074 2.074 0 0198.796 85zm24.717-213.838a2.072 2.072 0 01-2.075-2.075c0-1.147.927-2.087 2.075-2.087 1.147 0 2.075.928 2.075 2.087a2.073 2.073 0 01-2.075 2.075zm0 21.385a2.072 2.072 0 01-2.075-2.075c0-1.147.927-2.075 2.075-2.075 1.147 0 2.075.928 2.075 2.075a2.073 2.073 0 01-2.075 2.075zm0 21.385a2.073 2.073 0 01-2.075-2.075c0-1.147.927-2.075 2.075-2.075 1.147 0 2.075.928 2.075 2.075a2.074 2.074 0 01-2.075 2.075zm0 21.385a2.073 2.073 0 01-2.075-2.075c0-1.147.927-2.075 2.075-2.075 1.147 0 2.075.928 2.075 2.075a2.074 2.074 0 01-2.075 2.075zm0 21.373a2.073 2.073 0 01-2.075-2.075c0-1.148.927-2.075 2.075-2.075 1.147 0 2.075.928 2.075 2.075 0 1.16-.928 2.075-2.075 2.075zm0 21.385A2.073 2.073 0 01121.438-24c0-1.148.927-2.075 2.075-2.075 1.147 0 2.075.927 2.075 2.075a2.074 2.074 0 01-2.075 2.075zm0 21.385a2.073 2.073 0 01-2.075-2.075c0-1.148.927-2.075 2.075-2.075 1.147 0 2.075.927 2.075 2.075a2.074 2.074 0 01-2.075 2.075zm0 21.397a2.075 2.075 0 01-2.075-2.087c0-1.148.927-2.075 2.075-2.075 1.147 0 2.075.927 2.075 2.075a2.084 2.084 0 01-2.075 2.087zm0 21.373a2.073 2.073 0 01-2.075-2.075c0-1.148.927-2.075 2.075-2.075 1.147 0 2.075.927 2.075 2.075a2.074 2.074 0 01-2.075 2.075zm0 21.385a2.073 2.073 0 01-2.075-2.075c0-1.148.927-2.075 2.075-2.075 1.147 0 2.075.927 2.075 2.075a2.073 2.073 0 01-2.075 2.075zm0 21.385a2.073 2.073 0 01-2.075-2.075c0-1.148.927-2.075 2.075-2.075 1.147 0 2.075.927 2.075 2.075A2.073 2.073 0 01123.513 85zm94.771-213.837a2.074 2.074 0 01-2.075-2.075c0-1.148.928-2.088 2.075-2.088 1.148 0 2.075.928 2.075 2.088a2.073 2.073 0 01-2.075 2.075zm0 21.385a2.074 2.074 0 01-2.075-2.075c0-1.148.928-2.075 2.075-2.075 1.148 0 2.075.927 2.075 2.075a2.073 2.073 0 01-2.075 2.075zm0 21.385a2.074 2.074 0 01-2.075-2.075c0-1.148.928-2.075 2.075-2.075 1.148 0 2.075.927 2.075 2.075a2.073 2.073 0 01-2.075 2.075zm0 21.385a2.073 2.073 0 01-2.075-2.075c0-1.148.928-2.075 2.075-2.075 1.148 0 2.075.927 2.075 2.075a2.073 2.073 0 01-2.075 2.075zm0 21.372a2.074 2.074 0 01-2.075-2.075c0-1.147.928-2.075 2.075-2.075 1.148 0 2.075.928 2.075 2.075 0 1.16-.927 2.075-2.075 2.075zm0 21.385A2.074 2.074 0 01216.209-24c0-1.147.928-2.075 2.075-2.075 1.148 0 2.075.928 2.075 2.075a2.073 2.073 0 01-2.075 2.075zm0 21.385a2.074 2.074 0 01-2.075-2.075c0-1.147.928-2.075 2.075-2.075 1.148 0 2.075.928 2.075 2.075a2.073 2.073 0 01-2.075 2.075zm0 21.398a2.076 2.076 0 01-2.075-2.088c0-1.147.928-2.075 2.075-2.075 1.148 0 2.075.928 2.075 2.075a2.083 2.083 0 01-2.075 2.088zm0 21.372a2.074 2.074 0 01-2.075-2.075c0-1.147.928-2.075 2.075-2.075 1.148 0 2.075.928 2.075 2.075a2.073 2.073 0 01-2.075 2.075zm0 21.385a2.073 2.073 0 01-2.075-2.075c0-1.147.928-2.075 2.075-2.075 1.148 0 2.075.928 2.075 2.075a2.073 2.073 0 01-2.075 2.075zm0 21.385a2.073 2.073 0 01-2.075-2.075c0-1.147.928-2.075 2.075-2.075 1.148 0 2.075.928 2.075 2.075A2.073 2.073 0 01218.284 85zm24.705-213.838a2.073 2.073 0 01-2.075-2.075c0-1.147.928-2.087 2.075-2.087 1.148 0 2.075.928 2.075 2.087a2.072 2.072 0 01-2.075 2.075zm0 21.385a2.073 2.073 0 01-2.075-2.075c0-1.147.928-2.075 2.075-2.075 1.148 0 2.075.928 2.075 2.075a2.072 2.072 0 01-2.075 2.075zm0 21.385a2.074 2.074 0 01-2.075-2.075c0-1.147.928-2.075 2.075-2.075 1.148 0 2.075.928 2.075 2.075a2.073 2.073 0 01-2.075 2.075zm0 21.385a2.074 2.074 0 01-2.075-2.075c0-1.147.928-2.075 2.075-2.075 1.148 0 2.075.928 2.075 2.075a2.073 2.073 0 01-2.075 2.075zm0 21.373a2.073 2.073 0 01-2.075-2.075c0-1.148.928-2.075 2.075-2.075 1.148 0 2.075.928 2.075 2.075 0 1.16-.927 2.075-2.075 2.075zm0 21.385A2.074 2.074 0 01240.914-24c0-1.148.928-2.075 2.075-2.075 1.148 0 2.075.927 2.075 2.075a2.073 2.073 0 01-2.075 2.075zm0 21.385a2.074 2.074 0 01-2.075-2.075c0-1.148.928-2.075 2.075-2.075 1.148 0 2.075.927 2.075 2.075a2.073 2.073 0 01-2.075 2.075zm0 21.397a2.076 2.076 0 01-2.075-2.087c0-1.148.928-2.075 2.075-2.075 1.148 0 2.075.927 2.075 2.075a2.083 2.083 0 01-2.075 2.087zm0 21.373a2.074 2.074 0 01-2.075-2.075c0-1.148.928-2.075 2.075-2.075 1.148 0 2.075.927 2.075 2.075a2.073 2.073 0 01-2.075 2.075zm0 21.385a2.073 2.073 0 01-2.075-2.075c0-1.148.928-2.075 2.075-2.075 1.148 0 2.075.927 2.075 2.075a2.073 2.073 0 01-2.075 2.075zm0 21.385a2.073 2.073 0 01-2.075-2.075c0-1.148.928-2.075 2.075-2.075 1.148 0 2.075.927 2.075 2.075A2.073 2.073 0 01242.989 85zm24.717-213.838a2.073 2.073 0 01-2.075-2.075c0-1.147.928-2.087 2.075-2.087 1.148 0 2.075.928 2.075 2.087a2.072 2.072 0 01-2.075 2.075zm0 21.385a2.073 2.073 0 01-2.075-2.075c0-1.147.928-2.075 2.075-2.075 1.148 0 2.075.928 2.075 2.075a2.072 2.072 0 01-2.075 2.075zm0 21.385a2.074 2.074 0 01-2.075-2.075c0-1.147.928-2.075 2.075-2.075 1.148 0 2.075.928 2.075 2.075a2.073 2.073 0 01-2.075 2.075zm0 21.385a2.074 2.074 0 01-2.075-2.075c0-1.147.928-2.075 2.075-2.075 1.148 0 2.075.928 2.075 2.075a2.073 2.073 0 01-2.075 2.075zm0 21.373a2.073 2.073 0 01-2.075-2.075c0-1.148.928-2.075 2.075-2.075 1.148 0 2.075.928 2.075 2.075 0 1.16-.927 2.075-2.075 2.075zm0 21.385A2.074 2.074 0 01265.631-24c0-1.148.928-2.075 2.075-2.075 1.148 0 2.075.927 2.075 2.075a2.073 2.073 0 01-2.075 2.075zm0 21.385a2.074 2.074 0 01-2.075-2.075c0-1.148.928-2.075 2.075-2.075 1.148 0 2.075.927 2.075 2.075a2.073 2.073 0 01-2.075 2.075zm0 21.397a2.076 2.076 0 01-2.075-2.087c0-1.148.928-2.075 2.075-2.075 1.148 0 2.075.927 2.075 2.075a2.083 2.083 0 01-2.075 2.087zm0 21.373a2.074 2.074 0 01-2.075-2.075c0-1.148.928-2.075 2.075-2.075 1.148 0 2.075.927 2.075 2.075a2.073 2.073 0 01-2.075 2.075zm0 21.385a2.073 2.073 0 01-2.075-2.075c0-1.148.928-2.075 2.075-2.075 1.148 0 2.075.927 2.075 2.075a2.073 2.073 0 01-2.075 2.075zm0 21.385a2.073 2.073 0 01-2.075-2.075c0-1.148.928-2.075 2.075-2.075 1.148 0 2.075.927 2.075 2.075A2.073 2.073 0 01267.706 85z" fill="#414272" fill-opacity=".5"/></svg>