<svg width="44" height="179" fill="none" xmlns="http://www.w3.org/2000/svg"><path d="M1.7 3.41c-.94 0-1.7-.76-1.7-1.7S.76 0 1.7 0s1.7.76 1.7 1.71c0 .94-.76 1.7-1.7 1.7zm0 17.52c-.94 0-1.7-.76-1.7-1.7s.76-1.7 1.7-1.7 1.7.76 1.7 1.7-.76 1.7-1.7 1.7zm0 17.52c-.94 0-1.7-.76-1.7-1.7s.76-1.7 1.7-1.7 1.7.76 1.7 1.7-.76 1.7-1.7 1.7zm0 17.52c-.94 0-1.7-.76-1.7-1.7s.76-1.7 1.7-1.7 1.7.76 1.7 1.7-.76 1.7-1.7 1.7zm0 17.51c-.94 0-1.7-.76-1.7-1.7s.76-1.7 1.7-1.7 1.7.76 1.7 1.7c0 .95-.76 1.7-1.7 1.7zM1.7 91C.76 91 0 90.24 0 89.3s.76-1.7 1.7-1.7 1.7.76 1.7 1.7S2.64 91 1.7 91zm0 17.52c-.94 0-1.7-.76-1.7-1.7s.76-1.7 1.7-1.7 1.7.76 1.7 1.7-.76 1.7-1.7 1.7zm0 17.53a1.7 1.7 0 01-1.7-1.71c0-.94.76-1.7 1.7-1.7s1.7.76 1.7 1.7-.76 1.71-1.7 1.71zm0 17.51c-.94 0-1.7-.76-1.7-1.7s.76-1.7 1.7-1.7 1.7.76 1.7 1.7-.76 1.7-1.7 1.7zm0 17.52c-.94 0-1.7-.76-1.7-1.7s.76-1.7 1.7-1.7 1.7.76 1.7 1.7-.76 1.7-1.7 1.7zm0 17.52c-.94 0-1.7-.76-1.7-1.7s.76-1.7 1.7-1.7 1.7.76 1.7 1.7-.76 1.7-1.7 1.7zM21.94 3.41c-.94 0-1.7-.76-1.7-1.7S21 0 21.94 0s1.7.76 1.7 1.71c0 .94-.76 1.7-1.7 1.7zm0 17.52c-.94 0-1.7-.76-1.7-1.7s.76-1.7 1.7-1.7 1.7.76 1.7 1.7-.76 1.7-1.7 1.7zm0 17.52c-.94 0-1.7-.76-1.7-1.7s.76-1.7 1.7-1.7 1.7.76 1.7 1.7-.76 1.7-1.7 1.7zm0 17.52c-.94 0-1.7-.76-1.7-1.7s.76-1.7 1.7-1.7 1.7.76 1.7 1.7-.76 1.7-1.7 1.7zm0 17.51c-.94 0-1.7-.76-1.7-1.7s.76-1.7 1.7-1.7 1.7.76 1.7 1.7c0 .95-.76 1.7-1.7 1.7zm0 17.52c-.94 0-1.7-.76-1.7-1.7s.76-1.7 1.7-1.7 1.7.76 1.7 1.7-.76 1.7-1.7 1.7zm0 17.52c-.94 0-1.7-.76-1.7-1.7s.76-1.7 1.7-1.7 1.7.76 1.7 1.7-.76 1.7-1.7 1.7zm0 17.53a1.7 1.7 0 01-1.7-1.71c0-.94.76-1.7 1.7-1.7s1.7.76 1.7 1.7-.76 1.71-1.7 1.71zm0 17.51c-.94 0-1.7-.76-1.7-1.7s.76-1.7 1.7-1.7 1.7.76 1.7 1.7-.76 1.7-1.7 1.7zm0 17.52c-.94 0-1.7-.76-1.7-1.7s.76-1.7 1.7-1.7 1.7.76 1.7 1.7-.76 1.7-1.7 1.7zm0 17.52c-.94 0-1.7-.76-1.7-1.7s.76-1.7 1.7-1.7 1.7.76 1.7 1.7-.76 1.7-1.7 1.7zM42.19 3.41c-.94 0-1.7-.76-1.7-1.7S41.25 0 42.19 0s1.7.76 1.7 1.71c0 .94-.76 1.7-1.7 1.7zm0 17.52c-.94 0-1.7-.76-1.7-1.7s.76-1.7 1.7-1.7 1.7.76 1.7 1.7-.76 1.7-1.7 1.7zm0 17.52c-.94 0-1.7-.76-1.7-1.7s.76-1.7 1.7-1.7 1.7.76 1.7 1.7-.76 1.7-1.7 1.7zm0 17.52c-.94 0-1.7-.76-1.7-1.7s.76-1.7 1.7-1.7 1.7.76 1.7 1.7-.76 1.7-1.7 1.7zm0 17.51c-.94 0-1.7-.76-1.7-1.7s.76-1.7 1.7-1.7 1.7.76 1.7 1.7c0 .95-.76 1.7-1.7 1.7zm0 17.52c-.94 0-1.7-.76-1.7-1.7s.76-1.7 1.7-1.7 1.7.76 1.7 1.7-.76 1.7-1.7 1.7zm0 17.52c-.94 0-1.7-.76-1.7-1.7s.76-1.7 1.7-1.7 1.7.76 1.7 1.7-.76 1.7-1.7 1.7zm0 17.53a1.7 1.7 0 01-1.7-1.71c0-.94.76-1.7 1.7-1.7s1.7.76 1.7 1.7-.76 1.71-1.7 1.71zm0 17.51c-.94 0-1.7-.76-1.7-1.7s.76-1.7 1.7-1.7 1.7.76 1.7 1.7-.76 1.7-1.7 1.7zm0 17.52c-.94 0-1.7-.76-1.7-1.7s.76-1.7 1.7-1.7 1.7.76 1.7 1.7-.76 1.7-1.7 1.7zm0 17.52c-.94 0-1.7-.76-1.7-1.7s.76-1.7 1.7-1.7 1.7.76 1.7 1.7-.76 1.7-1.7 1.7z" fill="#414272" fill-opacity=".5"/></svg>