<svg width="116" height="235" fill="none" xmlns="http://www.w3.org/2000/svg"><path d="M1.904 4.484C.85 4.484 0 3.484 0 2.249 0 1.012.851 0 1.904 0c1.052 0 1.903 1 1.903 2.249 0 1.236-.85 2.235-1.903 2.235zm0 23.037C.85 27.521 0 26.522 0 25.286c0-1.236.851-2.235 1.904-2.235 1.052 0 1.903.999 1.903 2.235 0 1.236-.85 2.235-1.903 2.235zm0 23.038c-1.053 0-1.904-1-1.904-2.235 0-1.237.851-2.236 1.904-2.236 1.052 0 1.903 1 1.903 2.236 0 1.236-.85 2.235-1.903 2.235zm0 23.037C.85 73.596 0 72.597 0 71.361c0-1.236.851-2.235 1.904-2.235 1.052 0 1.903.999 1.903 2.235 0 1.236-.85 2.235-1.903 2.235zm0 23.025C.85 96.62 0 95.62 0 94.385c0-1.236.851-2.235 1.904-2.235 1.052 0 1.903 1 1.903 2.235 0 1.25-.85 2.236-1.903 2.236zm0 23.037c-1.053 0-1.904-.999-1.904-2.235 0-1.236.851-2.236 1.904-2.236 1.052 0 1.903 1 1.903 2.236 0 1.236-.85 2.235-1.903 2.235zm0 23.038c-1.053 0-1.904-1-1.904-2.236 0-1.236.851-2.235 1.904-2.235 1.052 0 1.903.999 1.903 2.235 0 1.236-.85 2.236-1.903 2.236zm0 23.05c-1.053 0-1.904-.999-1.904-2.248 0-1.236.851-2.236 1.904-2.236 1.052 0 1.903 1 1.903 2.236 0 1.236-.85 2.248-1.903 2.248zm0 23.025c-1.053 0-1.904-1-1.904-2.236 0-1.236.851-2.235 1.904-2.235 1.052 0 1.903.999 1.903 2.235 0 1.236-.85 2.236-1.903 2.236zm0 23.037c-1.053 0-1.904-.999-1.904-2.235 0-1.236.851-2.236 1.904-2.236 1.052 0 1.903 1 1.903 2.236 0 1.236-.85 2.235-1.903 2.235zm0 23.038c-1.053 0-1.904-1-1.904-2.236 0-1.236.851-2.235 1.904-2.235 1.052 0 1.903.999 1.903 2.235 0 1.236-.85 2.236-1.903 2.236zM24.569 4.484c-1.053 0-1.904-1-1.904-2.235 0-1.237.851-2.249 1.904-2.249s1.904 1 1.904 2.249c0 1.236-.851 2.235-1.904 2.235zm0 23.037c-1.053 0-1.904-.999-1.904-2.235 0-1.236.851-2.235 1.904-2.235s1.904.999 1.904 2.235c0 1.236-.851 2.235-1.904 2.235zm0 23.038c-1.053 0-1.904-1-1.904-2.235 0-1.236.851-2.236 1.904-2.236s1.904 1 1.904 2.236c0 1.236-.851 2.235-1.904 2.235zm0 23.037c-1.053 0-1.904-.999-1.904-2.235 0-1.236.851-2.235 1.904-2.235s1.904.999 1.904 2.235c0 1.236-.851 2.235-1.904 2.235zm0 23.025c-1.053 0-1.904-1-1.904-2.236 0-1.236.851-2.235 1.904-2.235s1.904 1 1.904 2.235c0 1.25-.851 2.236-1.904 2.236zm0 23.037c-1.053 0-1.904-.999-1.904-2.235 0-1.236.851-2.236 1.904-2.236s1.904 1 1.904 2.236c0 1.236-.851 2.235-1.904 2.235zm0 23.038c-1.053 0-1.904-1-1.904-2.236 0-1.236.851-2.235 1.904-2.235s1.904.999 1.904 2.235c0 1.236-.851 2.236-1.904 2.236zm0 23.05c-1.053 0-1.904-.999-1.904-2.248 0-1.236.851-2.236 1.904-2.236s1.904 1 1.904 2.236c0 1.236-.851 2.248-1.904 2.248zm0 23.025c-1.053 0-1.904-1-1.904-2.236 0-1.236.851-2.235 1.904-2.235s1.904.999 1.904 2.235c0 1.236-.851 2.236-1.904 2.236zm0 23.037c-1.053 0-1.904-.999-1.904-2.235 0-1.236.851-2.236 1.904-2.236s1.904 1 1.904 2.236c0 1.236-.851 2.235-1.904 2.235zm0 23.038c-1.053 0-1.904-1-1.904-2.236 0-1.236.851-2.235 1.904-2.235s1.904.999 1.904 2.235c0 1.236-.851 2.236-1.904 2.236zM47.245 4.484c-1.052 0-1.903-1-1.903-2.235 0-1.237.85-2.249 1.903-2.249s1.904 1 1.904 2.249c0 1.236-.851 2.235-1.904 2.235zm0 23.037c-1.052 0-1.903-.999-1.903-2.235 0-1.236.85-2.235 1.903-2.235s1.904.999 1.904 2.235c0 1.236-.851 2.235-1.904 2.235zm0 23.038c-1.052 0-1.903-1-1.903-2.235 0-1.236.85-2.236 1.903-2.236s1.904 1 1.904 2.236c0 1.236-.851 2.235-1.904 2.235zm0 23.037c-1.052 0-1.903-.999-1.903-2.235 0-1.236.85-2.235 1.903-2.235s1.904.999 1.904 2.235c0 1.236-.851 2.235-1.904 2.235zm0 23.025c-1.052 0-1.903-1-1.903-2.236 0-1.236.85-2.235 1.903-2.235s1.904 1 1.904 2.235c0 1.25-.851 2.236-1.904 2.236zm0 23.037c-1.052 0-1.903-.999-1.903-2.235 0-1.236.85-2.236 1.903-2.236s1.904 1 1.904 2.236c0 1.236-.851 2.235-1.904 2.235zm0 23.038c-1.052 0-1.903-1-1.903-2.236 0-1.236.85-2.235 1.903-2.235s1.904.999 1.904 2.235c0 1.236-.851 2.236-1.904 2.236zm0 23.05c-1.052 0-1.903-.999-1.903-2.248 0-1.236.85-2.236 1.903-2.236s1.904 1 1.904 2.236c0 1.236-.851 2.248-1.904 2.248zm0 23.025c-1.052 0-1.903-1-1.903-2.236 0-1.236.85-2.235 1.903-2.235s1.904.999 1.904 2.235c0 1.236-.851 2.236-1.904 2.236zm0 23.037c-1.052 0-1.903-.999-1.903-2.235 0-1.236.85-2.236 1.903-2.236s1.904 1 1.904 2.236c0 1.236-.851 2.235-1.904 2.235zm0 23.038c-1.052 0-1.903-1-1.903-2.236 0-1.236.85-2.235 1.903-2.235s1.904.999 1.904 2.235c0 1.236-.851 2.236-1.904 2.236zM67.973 4.484c-1.052 0-1.903-1-1.903-2.235 0-1.237.85-2.249 1.903-2.249s1.904 1 1.904 2.249c0 1.236-.851 2.235-1.904 2.235zm0 23.037c-1.052 0-1.903-.999-1.903-2.235 0-1.236.85-2.235 1.903-2.235s1.904.999 1.904 2.235c0 1.236-.851 2.235-1.904 2.235zm0 23.038c-1.052 0-1.903-1-1.903-2.235 0-1.237.85-2.236 1.903-2.236s1.904 1 1.904 2.236c0 1.236-.851 2.235-1.904 2.235zm0 23.037c-1.052 0-1.903-.999-1.903-2.235 0-1.236.85-2.235 1.903-2.235s1.904.999 1.904 2.235c0 1.236-.851 2.235-1.904 2.235zm0 23.025c-1.052 0-1.903-1-1.903-2.236 0-1.236.85-2.235 1.903-2.235s1.904 1 1.904 2.235c0 1.25-.851 2.236-1.904 2.236zm0 23.037c-1.052 0-1.903-.999-1.903-2.235 0-1.236.85-2.236 1.903-2.236s1.904 1 1.904 2.236c0 1.236-.851 2.235-1.904 2.235zm0 23.038c-1.052 0-1.903-1-1.903-2.236 0-1.236.85-2.235 1.903-2.235s1.904.999 1.904 2.235c0 1.236-.851 2.236-1.904 2.236zm0 23.05c-1.052 0-1.903-.999-1.903-2.248 0-1.236.85-2.236 1.903-2.236s1.904 1 1.904 2.236c0 1.236-.851 2.248-1.904 2.248zm0 23.025c-1.052 0-1.903-1-1.903-2.236 0-1.236.85-2.235 1.903-2.235s1.904.999 1.904 2.235c0 1.236-.851 2.236-1.904 2.236zm0 23.037c-1.052 0-1.903-.999-1.903-2.235 0-1.236.85-2.236 1.903-2.236s1.904 1 1.904 2.236c0 1.236-.851 2.235-1.904 2.235zm0 23.038c-1.052 0-1.903-1-1.903-2.236 0-1.236.85-2.235 1.903-2.235s1.904.999 1.904 2.235c0 1.236-.851 2.236-1.904 2.236zM90.638 4.484c-1.052 0-1.904-1-1.904-2.235 0-1.237.852-2.249 1.904-2.249 1.053 0 1.904 1 1.904 2.249 0 1.236-.851 2.235-1.904 2.235zm0 23.037c-1.052 0-1.904-.999-1.904-2.235 0-1.236.852-2.235 1.904-2.235 1.053 0 1.904.999 1.904 2.235 0 1.236-.851 2.235-1.904 2.235zm0 23.038c-1.052 0-1.904-1-1.904-2.235 0-1.236.852-2.236 1.904-2.236 1.053 0 1.904 1 1.904 2.236 0 1.236-.851 2.235-1.904 2.235zm0 23.037c-1.052 0-1.904-.999-1.904-2.235 0-1.236.852-2.235 1.904-2.235 1.053 0 1.904.999 1.904 2.235 0 1.236-.851 2.235-1.904 2.235zm0 23.025c-1.052 0-1.904-1-1.904-2.236 0-1.236.852-2.235 1.904-2.235 1.053 0 1.904 1 1.904 2.235 0 1.25-.851 2.236-1.904 2.236zm0 23.037c-1.052 0-1.904-.999-1.904-2.235 0-1.236.852-2.236 1.904-2.236 1.053 0 1.904 1 1.904 2.236 0 1.236-.851 2.235-1.904 2.235zm0 23.038c-1.052 0-1.904-1-1.904-2.236 0-1.236.852-2.235 1.904-2.235 1.053 0 1.904.999 1.904 2.235 0 1.236-.851 2.236-1.904 2.236zm0 23.05c-1.052 0-1.904-.999-1.904-2.248 0-1.236.852-2.236 1.904-2.236 1.053 0 1.904 1 1.904 2.236 0 1.236-.851 2.248-1.904 2.248zm0 23.025c-1.052 0-1.904-1-1.904-2.236 0-1.236.852-2.235 1.904-2.235 1.053 0 1.904.999 1.904 2.235 0 1.236-.851 2.236-1.904 2.236zm0 23.037c-1.052 0-1.904-.999-1.904-2.235 0-1.236.852-2.236 1.904-2.236 1.053 0 1.904 1 1.904 2.236 0 1.236-.851 2.235-1.904 2.235zm0 23.038c-1.052 0-1.904-1-1.904-2.236 0-1.236.852-2.235 1.904-2.235 1.053 0 1.904.999 1.904 2.235 0 1.236-.851 2.236-1.904 2.236zM113.315 4.484c-1.053 0-1.904-1-1.904-2.235 0-1.237.851-2.249 1.904-2.249 1.052 0 1.903 1 1.903 2.249 0 1.236-.851 2.235-1.903 2.235zm0 23.037c-1.053 0-1.904-.999-1.904-2.235 0-1.236.851-2.235 1.904-2.235 1.052 0 1.903.999 1.903 2.235 0 1.236-.851 2.235-1.903 2.235zm0 23.038c-1.053 0-1.904-1-1.904-2.235 0-1.236.851-2.236 1.904-2.236 1.052 0 1.903 1 1.903 2.236 0 1.236-.851 2.235-1.903 2.235zm0 23.037c-1.053 0-1.904-.999-1.904-2.235 0-1.236.851-2.235 1.904-2.235 1.052 0 1.903.999 1.903 2.235 0 1.236-.851 2.235-1.903 2.235zm0 23.025c-1.053 0-1.904-1-1.904-2.236 0-1.236.851-2.235 1.904-2.235 1.052 0 1.903 1 1.903 2.235 0 1.25-.851 2.236-1.903 2.236zm0 23.037c-1.053 0-1.904-.999-1.904-2.235 0-1.236.851-2.236 1.904-2.236 1.052 0 1.903 1 1.903 2.236 0 1.236-.851 2.235-1.903 2.235zm0 23.038c-1.053 0-1.904-1-1.904-2.236 0-1.236.851-2.235 1.904-2.235 1.052 0 1.903.999 1.903 2.235 0 1.236-.851 2.236-1.903 2.236zm0 23.05c-1.053 0-1.904-.999-1.904-2.248 0-1.236.851-2.236 1.904-2.236 1.052 0 1.903 1 1.903 2.236 0 1.236-.851 2.248-1.903 2.248zm0 23.025c-1.053 0-1.904-1-1.904-2.236 0-1.236.851-2.235 1.904-2.235 1.052 0 1.903.999 1.903 2.235 0 1.236-.851 2.236-1.903 2.236zm0 23.037c-1.053 0-1.904-.999-1.904-2.235 0-1.236.851-2.236 1.904-2.236 1.052 0 1.903 1 1.903 2.236 0 1.236-.851 2.235-1.903 2.235zm0 23.038c-1.053 0-1.904-1-1.904-2.236 0-1.236.851-2.235 1.904-2.235 1.052 0 1.903.999 1.903 2.235 0 1.236-.851 2.236-1.903 2.236z" fill="#414272" fill-opacity=".5"/></svg>