<svg width="94" height="94" fill="none" xmlns="http://www.w3.org/2000/svg"><path d="M0 77.323c0 4.18 3.4 7.58 7.58 7.58h19.71v6.065h-6.064V94h51.548v-3.032H66.71v-6.065h19.71c4.18 0 7.58-3.4 7.58-7.58v-4.549H0v4.549zm63.677 13.645H30.323v-6.065h33.354v6.065zM3.032 75.806h87.936v1.517a4.554 4.554 0 01-4.549 4.548H7.581a4.554 4.554 0 01-4.549-4.548v-1.517zM86.42 15.161H65.193v3.033h21.225a4.554 4.554 0 014.549 4.548v47H94v-47c0-4.18-3.4-7.58-7.58-7.58zM3.032 22.742a4.554 4.554 0 014.549-4.548h21.226V15.16H7.58C3.4 15.161 0 18.562 0 22.742v47h3.032v-47zm36.388 5.535v7.405l4.467 2.98-4.468 2.979v4.654l4.468 2.98-4.468 2.978v5.78l5.207 8.677h4.75l5.205-8.677V28.277a15.063 15.063 0 007.58-13.116C62.161 6.801 55.36 0 47 0S31.839 6.801 31.839 15.161c0 5.464 2.88 10.407 7.58 13.116zM47 3.032c6.688 0 12.129 5.442 12.129 12.13 0 4.623-2.582 8.782-6.74 10.852l-.84.418v30.76l-3.891 6.485h-1.315l-3.891-6.484v-3.317L47 50.843v-3.138l-4.548-3.032v-1.41L47 40.23v-3.139l-4.548-3.032v-7.628l-.842-.418c-4.157-2.07-6.74-6.229-6.74-10.853 0-6.687 5.442-12.129 12.13-12.129z" fill="#fff"/><path d="M47 15.161a4.554 4.554 0 004.548-4.548A4.554 4.554 0 0047 6.064a4.554 4.554 0 00-4.548 4.549A4.554 4.554 0 0047 15.16zm0-6.064a1.517 1.517 0 010 3.032 1.517 1.517 0 010-3.032zm17.096 42.9a4.483 4.483 0 00-1.935-.449 4.554 4.554 0 00-4.548 4.549 4.554 4.554 0 004.548 4.548 4.554 4.554 0 004.549-4.548c0-.7-.172-1.354-.454-1.945a24.21 24.21 0 005.002-14.733 24.178 24.178 0 00-6.468-16.49l-2.224 2.06a21.154 21.154 0 015.66 14.43c0 4.553-1.456 8.947-4.13 12.578zm-1.935 5.616a1.517 1.517 0 11.001-3.033 1.517 1.517 0 010 3.033zM22.742 27.29c0 1.392.641 2.625 1.63 3.459-1.061 2.765-1.63 5.671-1.63 8.67 0 9.02 4.958 17.242 12.937 21.458l1.416-2.68a21.191 21.191 0 01-11.32-18.778c0-2.627.497-5.17 1.424-7.59.032 0 .061.01.091.01a4.554 4.554 0 004.549-4.549 4.554 4.554 0 00-4.549-4.548 4.554 4.554 0 00-4.548 4.548zm6.064 0c0 .836-.679 1.517-1.516 1.517s-1.516-.681-1.516-1.517c0-.835.68-1.516 1.516-1.516.837 0 1.517.68 1.517 1.516z" fill="#fff"/></svg>