<svg width="88" height="82" fill="none" xmlns="http://www.w3.org/2000/svg"><path d="M85.428 63.683h-.001l-17.81-11.068s0 0 0 0c-2.057-1.267-4.81-.842-6.316.95l-5.183 6.21-.002.002c-.823 1.008-2.293 1.287-3.458.685l32.77 3.221zm0 0c2.078 1.288 2.678 3.842 1.41 5.803h0l-4.478 6.936-.003.005c-1.303 2.067-3.422 3.593-5.92 4.246-2.204.556-4.48.832-6.765.823h-.002c-9.94 0-24.537-4.866-44.248-23.232C.64 35.169-1.223 19.639 1.38 10.797 2.074 8.495 3.7 6.522 5.932 5.3h0l.004-.002 7.448-4.169h0c2.158-1.209 4.944-.612 6.32 1.316v.001L31.581 19.04v.001c1.33 1.875.902 4.39-1.018 5.792 0 0 0 0 0 0l-6.662 4.83-.002.002c-1.08.77-1.406 2.19-.724 3.321l.001.003.538.914c1.805 3.08 4.06 6.915 12.3 14.597 8.24 7.68 12.35 9.775 15.658 11.455h.001l.983.506 32.772 3.222zm-9.51 15.326l-.003.001c-9.256 2.368-25.186.335-49.1-21.948C2.91 34.787.693 19.916 3.25 11.236l.001-.004h0C3.827 9.344 5.16 7.747 6.96 6.767l7.445-4.162s0 0 0 0 0 0 0 0c1.24-.695 2.858-.369 3.677.779L75.92 79.009zm0 0c1.999-.529 3.71-1.76 4.768-3.446l.001-.002m-4.768 3.448l4.768-3.448m0 0l4.465-6.935c.779-1.205.388-2.756-.837-3.515l-3.628 10.45zM24.533 12.41l-6.452-9.027L84.315 65.11l-17.81-11.068-.001-.001c-1.185-.73-2.775-.498-3.666.56l-.001.002-5.187 6.213-.003.003c-1.395 1.7-3.942 2.2-5.969 1.14h-.003l-.963-.495-.002-.001-.019-.01c-3.397-1.727-7.632-3.879-16.084-11.754-8.45-7.872-10.759-11.818-12.61-14.98l-.01-.02-.002-.001-.53-.897-.002-.003c-1.108-1.843-.605-4.172 1.222-5.473h0l.003-.003 6.668-4.833h.001c1.138-.832 1.416-2.364.603-3.509l-.001-.002-5.416-7.568h0zm25.332.764h-.001c-.568 0-.966-.42-.966-.867 0-.446.398-.866.966-.866 15.139.015 27.346 11.44 27.363 25.463 0 .446-.4.866-.967.866-.568 0-.966-.42-.966-.866v0c-.016-13.133-11.426-23.716-25.43-23.73z" fill="#fff" stroke="#fff"/><path d="M49.865 21.372h-.001c-.568 0-.966-.42-.966-.866s.398-.866.966-.866c10.281.01 18.552 7.766 18.564 17.264 0 .446-.4.866-.967.866s-.966-.42-.966-.866v-.001c-.01-8.606-7.484-15.52-16.63-15.53zm0 8.199h-.001c-.568 0-.966-.42-.966-.866s.398-.866.966-.867c5.424.006 9.759 4.094 9.765 9.066 0 .446-.399.866-.966.866-.568 0-.967-.42-.967-.866v-.001c-.005-4.08-3.542-7.327-7.831-7.332z" fill="#fff" stroke="#fff"/></svg>