<svg width="86" height="86" fill="none" xmlns="http://www.w3.org/2000/svg"><path d="M82.476.992a7.058 7.058 0 00-9.631 2.581l-9.61 16.645H42.51a1.68 1.68 0 000 3.36h18.785l-6.974 12.079H15.118a1.68 1.68 0 000 3.36H52.38l-3.879 6.718H15.118a1.68 1.68 0 000 3.36h32.69l-.724 6.719H15.118a1.68 1.68 0 000 3.36h31.604l-.09.829a1.68 1.68 0 002.661 1.536l10.725-7.835c.19-.138.347-.314.464-.517l13.09-22.672v32.558a6.834 6.834 0 01-6.826 6.826H27.82c-.6 0-1.155.32-1.455.84L20.49 80.912l-5.873-10.173a1.68 1.68 0 00-1.455-.84h-2.977a6.833 6.833 0 01-6.826-6.826v-32.67a6.834 6.834 0 016.826-6.825h17.207a1.68 1.68 0 000-3.36H10.185C4.57 20.218 0 24.788 0 30.404v32.67c0 5.615 4.569 10.184 10.185 10.184h2.007l6.844 11.853a1.68 1.68 0 002.909 0l6.843-11.853h37.959c5.616 0 10.185-4.569 10.185-10.185v-32.67c0-1.44-.306-2.862-.89-4.166l9.015-15.613A7.059 7.059 0 0082.476.992zm-1.68 2.91a3.695 3.695 0 011.351 5.042l-.96 1.662-6.393-3.69.96-1.663a3.696 3.696 0 015.042-1.351zM51.12 49.722l4.835 2.79-5.575 4.073.74-6.864zm7.294.331l-6.393-3.691L73.114 9.824l6.394 3.692-21.095 36.537z" fill="#fff"/><path d="M34.95 23.578c.442 0 .875-.18 1.19-.492.312-.313.492-.746.492-1.188 0-.442-.18-.875-.493-1.187a1.697 1.697 0 00-1.189-.492c-.442 0-.875.18-1.187.492a1.69 1.69 0 00-.49 1.187c0 .442.177.875.49 1.188.314.312.745.492 1.187.492z" fill="#fff"/></svg>