<svg width="83" height="97" fill="none" xmlns="http://www.w3.org/2000/svg"><path d="M62.354 59c2.357-1.157 4.324-3.024 5.644-5.424 3.434-6.242.401-11.866.385-11.946a22.033 22.033 0 01-1.822-6.275c.206-.597.32-1.236.32-1.902v-5.517a5.8 5.8 0 00-.549-2.466v-.638c0-4.773-1.357-9.408-3.926-13.406a1.42 1.42 0 10-2.39 1.536 21.877 21.877 0 013.359 9.626 5.799 5.799 0 00-2.328-.486h-2.325c-1.344-7.29-10.382-10.086-15.602-4.786-3.348 3.4-7.355 1.873-12.378 2.249a6.629 6.629 0 00-6.215 4.34h-1.074a6.75 6.75 0 00-3.943 1.269v-.342c0-12.126 9.865-21.99 21.99-21.99 5.23 0 10.296 1.866 14.267 5.256a1.421 1.421 0 001.845-2.162A24.838 24.838 0 0041.5 0C27.808 0 16.668 11.14 16.668 24.831l-.003 7.304c-.002 5.498-2.079 9.533-2.113 9.635-1.742 3.815-1.578 8.118.45 11.806 1.32 2.4 3.287 4.267 5.644 5.423C8.974 62.714.809 73.637.809 86.132v4.959A5.916 5.916 0 006.718 97h69.564a5.917 5.917 0 005.91-5.91v-4.958c0-12.494-8.166-23.418-19.838-27.133zm-3.478-24.227v-9.829h2.171a2.995 2.995 0 012.992 2.992v5.517a2.995 2.995 0 01-2.992 2.992h-2.278c.06-.552.099-1.11.107-1.672zm-.663 4.514h1.843v2.62c0 1.153-.937 2.09-2.09 2.09h-1.911a17.146 17.146 0 002.158-4.71zM26.966 26.182a3.78 3.78 0 013.775-3.775c4.64-.42 9.964 1.411 14.403-3.096 3.909-3.97 10.7-1.308 10.885 4.249v.008l.001.044c.008.303.001-1.436.005 11.128a14.665 14.665 0 01-.33 2.865 14.293 14.293 0 01-1.771 4.431 4.469 4.469 0 00-2.947-1.107h-4.44a4.494 4.494 0 00-4.488 4.489 4.48 4.48 0 001.633 3.461c-.724.11-1.456.168-2.192.168a14.467 14.467 0 01-10.205-4.186 14.444 14.444 0 01-4.258-8.92l-.003-.039a14.734 14.734 0 01-.068-1.162v-8.558zm25.646 19.495a1.648 1.648 0 01-1.625 1.388h-4.44a1.649 1.649 0 01-1.647-1.647 1.65 1.65 0 011.647-1.647h4.44a1.648 1.648 0 011.625 1.906zm-.57 13.764A12.726 12.726 0 0141.5 64.997a12.726 12.726 0 01-10.542-5.556 6.012 6.012 0 003.206-5.31v-3.858a17.323 17.323 0 007.336 1.616c2.535 0 5.048-.56 7.336-1.626v3.869a6.012 6.012 0 003.206 5.31zm-32.535-28.78a3.95 3.95 0 013.945-3.913h.672v7.893h-.671a3.92 3.92 0 01-2.791-1.156 3.921 3.921 0 01-1.154-2.757v-.068zm-2.015 21.545c-2.646-4.81-.305-9.342-.297-9.38A25.014 25.014 0 0019.218 36a6.736 6.736 0 004.235 1.484h.925a17.268 17.268 0 004.921 9.402 17.588 17.588 0 002.024 1.713v5.534c0 3.325-3.738 3.215-4.126 3.403-.279-.02-.992.019-2.206-.148-3.197-.44-5.93-2.327-7.499-5.18zm38.06 41.952H27.449V82.994a1.42 1.42 0 10-2.842 0v11.164h-8.063v-7.107a1.42 1.42 0 10-2.841 0v7.107H6.718a3.07 3.07 0 01-3.067-3.067v-4.959c0-12.267 8.743-22.854 20.79-25.172l2.188-.421a29.715 29.715 0 00-2.023 10.734v5.077a1.42 1.42 0 102.841 0v-5.077c0-3.218.596-6.436 1.733-9.449A15.552 15.552 0 0041.5 67.84c4.938 0 9.478-2.292 12.404-6.124a26.907 26.907 0 011.648 9.229v23.214zm.252-36.622l-1.564-.301a3.164 3.164 0 01-2.562-3.103v-4.278a4.502 4.502 0 003.566-3.015h2.722a4.937 4.937 0 004.931-4.931v-2.924c.477-.16.926-.379 1.34-.65.625 2.558 1.432 4.141 1.626 4.617 1.365 2.99 1.236 6.363-.355 9.256-1.57 2.853-4.302 4.74-7.498 5.18-1.212.167-1.99.132-2.206.149zM79.35 91.09a3.07 3.07 0 01-3.068 3.067H69.3V87.05a1.42 1.42 0 10-2.842 0v7.107h-8.063V70.944c0-3.526-.647-7.07-1.884-10.379l2.05.395c12.046 2.318 20.79 12.905 20.79 25.172v4.959z" fill="#fff"/></svg>