<svg width="171" height="163" fill="none" xmlns="http://www.w3.org/2000/svg"><path d="M7.767 10.664l21.687 11.35 21.663-11.416 21.696 11.349L94.468 10.53l21.696 11.349 21.663-11.416 21.696 11.349M7.783 22.99L29.48 34.34l21.655-11.416L72.83 34.273l21.654-11.416 21.697 11.349 21.662-11.416 21.705 11.35M7.8 35.325l21.696 11.341 21.655-11.408L72.847 46.6 94.51 35.192l21.696 11.349 21.662-11.416 21.697 11.349" stroke="#71C9BA" stroke-miterlimit="10"/><path d="M7.767 46.574l21.687 11.35 21.663-11.417 21.696 11.35L94.468 46.44l21.696 11.35 21.663-11.416 21.696 11.349M7.783 58.9L29.48 70.25l21.655-11.417 21.696 11.35 21.654-11.417 21.697 11.35L137.843 58.7l21.705 11.349M7.8 71.235l21.696 11.34 21.655-11.407 21.696 11.34L94.51 71.102l21.696 11.35 21.662-11.417 21.697 11.35" stroke="#71C9BA" stroke-miterlimit="10"/><path d="M7.767 81.979l21.687 11.349 21.663-11.416 21.696 11.35 21.655-11.417 21.696 11.35 21.663-11.417 21.696 11.35M7.783 94.305l21.696 11.349 21.655-11.416 21.696 11.349 21.654-11.416 21.697 11.349 21.662-11.415 21.705 11.349M7.8 106.64l21.696 11.34 21.655-11.407 21.696 11.341 21.663-11.408 21.696 11.349 21.662-11.416 21.697 11.349" stroke="#71C9BA" stroke-miterlimit="10"/></svg>