<svg width="112" height="112" fill="none" xmlns="http://www.w3.org/2000/svg"><g clip-path="url(#clip0)" fill="#fff"><path d="M57.462 61.125a1.748 1.748 0 00-.63-.022 4.177 4.177 0 01-3.694-4.142 1.837 1.837 0 00-3.674 0 7.86 7.86 0 005.779 7.568v1.837a1.837 1.837 0 103.674 0V64.64a7.844 7.844 0 00-1.607-15.523 4.171 4.171 0 114.17-4.171 1.837 1.837 0 003.675 0 7.86 7.86 0 00-6.238-7.68v-1.672a1.837 1.837 0 00-3.674 0v1.784A7.845 7.845 0 0057.31 52.79a4.168 4.168 0 01.152 8.335z"/><path d="M30.67 51.095c0 14.713 11.926 26.64 26.64 26.64 14.713 0 26.64-11.927 26.64-26.64 0-14.713-11.927-26.64-26.64-26.64-14.706.016-26.623 11.934-26.64 26.64zm26.64-22.966c12.684 0 22.965 10.282 22.965 22.966 0 12.684-10.281 22.966-22.965 22.966S34.344 63.779 34.344 51.095c.014-12.678 10.288-22.952 22.966-22.966z"/><path d="M93.006 82.264l-14.39 6.8a11.722 11.722 0 00-9.994-6.166l-13.285-.365a14.031 14.031 0 01-6.038-1.56l-1.352-.7a23.844 23.844 0 00-22.086.023l.085-3.062a1.837 1.837 0 00-1.786-1.887l-14.568-.401a1.836 1.836 0 00-1.886 1.785l-.88 31.969a1.836 1.836 0 001.786 1.887l14.567.401h.05c.996 0 1.81-.792 1.838-1.787l.042-1.529 3.784-2.026a6.49 6.49 0 014.845-.531l22.6 6.343a1.6 1.6 0 00.12.03 24.52 24.52 0 0015.206-1.722 1.69 1.69 0 00.228-.126l32.768-21.195c.816-.528 1.08-1.6.601-2.447a9.28 9.28 0 00-12.255-3.734zM10.55 106.965l.779-28.296 10.894.3-.778 28.297-10.895-.301zm59.46-.481a20.82 20.82 0 01-12.738 1.422l-22.539-6.327a10.165 10.165 0 00-7.572.828l-1.934 1.036.517-18.813a20.194 20.194 0 0120.515-1.094l1.352.7a17.744 17.744 0 007.627 1.97l13.286.365a8.058 8.058 0 017.657 6.421l-19.789-.546a1.838 1.838 0 00-.101 3.673l21.839.601h.051c.995 0 1.808-.793 1.835-1.787a11.65 11.65 0 00-.177-2.383l14.76-6.975.043-.02a5.613 5.613 0 016.348.889l-30.98 20.04zM59.147 19.29V1.837a1.837 1.837 0 00-3.675 0V19.29a1.837 1.837 0 003.675 0zm13.778 0v-8.267a1.837 1.837 0 00-3.674 0v8.267a1.837 1.837 0 003.674 0zm-27.557 0v-8.267a1.837 1.837 0 00-3.674 0v8.267a1.837 1.837 0 003.674 0z"/></g><defs><clipPath id="clip0"><path fill="#fff" d="M0 0h112v112H0z"/></clipPath></defs></svg>