<svg width="102" height="102" fill="none" xmlns="http://www.w3.org/2000/svg"><path d="M46.451 27.027H22.545a1.494 1.494 0 100 2.989H46.45a1.494 1.494 0 100-2.989z" fill="#fff"/><path d="M28.797 65.489a31.229 31.229 0 01-9.764-3.533 1.494 1.494 0 00-1.75.205 14.395 14.395 0 01-9.812 3.847c-.672 0-1.338-.046-1.995-.136a17.487 17.487 0 006.385-8.24 1.494 1.494 0 00-.312-1.545 31.388 31.388 0 01-8.56-21.589c0-17.374 14.134-31.51 31.51-31.51 15.226 0 28.26 10.854 30.993 25.809a1.495 1.495 0 002.94-.537C65.44 11.885 51.169 0 34.498 0 15.476 0 0 15.476 0 34.498c0 8.498 3.09 16.6 8.72 22.925a14.491 14.491 0 01-7.787 7.534 1.494 1.494 0 000 2.77 17.34 17.34 0 006.538 1.269 17.37 17.37 0 0011.026-3.93 34.19 34.19 0 009.763 3.362 1.495 1.495 0 00.537-2.94z" fill="#fff"/><path d="M22.545 38.98a1.494 1.494 0 100 2.989H39.44a1.494 1.494 0 100-2.989H22.545zm25.4-4.482c0-.825-.669-1.494-1.494-1.494H22.545a1.494 1.494 0 100 2.988H46.45c.825 0 1.494-.669 1.494-1.494zM74.973 52.69c-2.754 0-5.358.922-7.471 2.622a11.845 11.845 0 00-7.47-2.622c-6.592 0-11.954 5.362-11.954 11.953 0 6.199 3.28 12.29 9.486 17.613 4.586 3.934 9.116 6.065 9.307 6.154a1.497 1.497 0 001.262 0c.19-.09 4.72-2.22 9.307-6.154 6.205-5.324 9.486-11.414 9.486-17.613 0-6.59-5.362-11.953-11.953-11.953zm-7.471 32.693c-3.09-1.613-16.436-9.247-16.436-20.74 0-4.943 4.022-8.965 8.965-8.965a8.9 8.9 0 016.404 2.694 1.494 1.494 0 002.134 0 8.898 8.898 0 016.404-2.694c4.943 0 8.964 4.022 8.964 8.965 0 11.494-13.347 19.129-16.435 20.74z" fill="#fff"/><path d="M101.066 97.961a14.494 14.494 0 01-7.787-7.534A34.356 34.356 0 00102 67.502c0-19.022-15.476-34.498-34.498-34.498S33.004 48.48 33.004 67.502 48.48 102 67.502 102a34.53 34.53 0 0016.001-3.93A17.367 17.367 0 0094.53 102c2.258 0 4.458-.427 6.537-1.269a1.493 1.493 0 000-2.77zm-6.537 1.05c-3.65 0-7.135-1.365-9.813-3.846a1.493 1.493 0 00-1.75-.205 31.516 31.516 0 01-15.464 4.052c-17.375 0-31.51-14.136-31.51-31.51 0-17.375 14.135-31.51 31.51-31.51s31.51 14.135 31.51 31.51c0 8.056-3.04 15.723-8.56 21.589a1.494 1.494 0 00-.313 1.544 17.485 17.485 0 006.385 8.24c-.657.091-1.323.137-1.995.137z" fill="#fff"/></svg>