<svg width="83" height="83" fill="none" xmlns="http://www.w3.org/2000/svg"><g clip-path="url(#clip0)"><path d="M11.325 42.367h44.44a1.216 1.216 0 100-2.43h-44.44a1.216 1.216 0 100 2.43zM80.13 9.083a1.216 1.216 0 00-2.067 1.28 16.695 16.695 0 012.5 8.806c0 9.228-7.507 16.736-16.736 16.736-9.23 0-16.737-7.508-16.737-16.736 0-9.23 7.508-16.738 16.737-16.738 3.93 0 7.75 1.39 10.756 3.914a1.216 1.216 0 101.563-1.862A19.185 19.185 0 0063.827 0c-10.68 0-19.324 8.777-19.164 19.451H12.872C5.777 19.451.005 25.456.005 32.838v8.749a1.216 1.216 0 102.431 0v-8.749c0-6.04 4.682-10.956 10.436-10.956h31.98c1.323 9.289 9.327 16.454 18.976 16.454a19.05 19.05 0 009.442-2.492v23.347c0 6.041-4.68 10.956-10.435 10.956h-13.61c-.976.007-2.414.334-3.096 1.128L38.61 80.5c-.498.2-.965-.06-.996-.757V73.39c0-1.788-1.416-3.243-3.157-3.243H12.872c-5.754 0-10.436-4.915-10.436-10.956V47.26a1.216 1.216 0 10-2.431 0v11.931c0 7.382 5.772 13.387 12.867 13.387h21.584c.4 0 .726.365.726.812v6.353c0 1.228.662 2.336 1.728 2.893 1.069.558 2.614.52 3.45-.436l7.536-9.244c.403-.248.86-.378 1.33-.378h13.609c7.095 0 12.867-6.005 12.867-13.387V34.205c4.44-3.513 7.294-8.948 7.294-15.037 0-3.574-.99-7.062-2.865-10.085zM11.325 32.642h32.283a1.216 1.216 0 100-2.432H11.325a1.216 1.216 0 100 2.432zm0 19.45h53.057a1.216 1.216 0 100-2.43H11.325a1.216 1.216 0 100 2.43zM54.475 18.7v5.88c0 .382-.118.75-.34 1.061l-.951 1.335a1.988 1.988 0 00-.149 2.071 1.988 1.988 0 001.774 1.081h4.314a4.867 4.867 0 004.705 3.644c2.26 0 4.163-1.55 4.704-3.644h4.315c.75 0 1.43-.414 1.773-1.08a1.987 1.987 0 00-.148-2.072l-.951-1.335a1.82 1.82 0 01-.34-1.061V18.7a9.357 9.357 0 00-4.575-8.036c.094-.384.144-.78.144-1.177a4.928 4.928 0 00-4.923-4.922 4.927 4.927 0 00-4.778 6.098 9.357 9.357 0 00-4.575 8.037zm9.353 12.64c-.896 0-1.68-.487-2.1-1.212h4.2a2.43 2.43 0 01-2.1 1.212zm0-24.344a2.498 2.498 0 012.482 2.688 9.328 9.328 0 00-4.964 0 2.491 2.491 0 012.481-2.688zm0 4.782A6.93 6.93 0 0170.75 18.7v5.88c0 .891.274 1.746.79 2.472l.46.645H55.656l.46-.645a4.24 4.24 0 00.79-2.473V18.7a6.93 6.93 0 016.923-6.922zm-52.503 50.04h53.057a1.216 1.216 0 100-2.43H11.325a1.216 1.216 0 100 2.43z" fill="#fff"/></g><defs><clipPath id="clip0"><path fill="#fff" d="M0 0h83v83H0z"/></clipPath></defs></svg>