<svg width="89" height="89" fill="none" xmlns="http://www.w3.org/2000/svg"><path d="M13 40.328a1.39 1.39 0 01-1.372-1.63 33.42 33.42 0 0127.07-27.07 1.39 1.39 0 11.48 2.74 30.63 30.63 0 00-24.81 24.81 1.39 1.39 0 01-1.369 1.15zm37.06 37.065a1.39 1.39 0 01-.238-2.76 30.63 30.63 0 0024.81-24.81 1.39 1.39 0 112.74.48 33.42 33.42 0 01-27.07 27.07c-.08.013-.16.02-.241.02zM12.516 45.89a1.39 1.39 0 100-2.78 1.39 1.39 0 000 2.78zM44.5 13.906a1.39 1.39 0 100-2.781 1.39 1.39 0 000 2.781zM76.484 45.89a1.39 1.39 0 100-2.78 1.39 1.39 0 000 2.78zM44.5 77.875a1.39 1.39 0 100-2.781 1.39 1.39 0 000 2.781z" fill="#fff"/><path d="M44.5 86.219A41.719 41.719 0 1174 73.999a41.445 41.445 0 01-29.5 12.22zm0-80.656a38.937 38.937 0 1027.533 11.404A38.683 38.683 0 0044.5 5.563z" fill="#fff"/><path d="M52.191 57.501c2.215-1.58 3.434-3.73 3.434-6.048 0-2.319-1.22-4.467-3.434-6.048-1.736-1.24-3.935-2.011-6.3-2.23V32.068c3.888.456 6.953 2.78 6.953 5.48a1.39 1.39 0 102.781 0c0-2.319-1.22-4.468-3.434-6.048-1.736-1.24-3.935-2.012-6.3-2.23v-2.848a1.39 1.39 0 10-2.782 0v2.847c-2.365.219-4.564.99-6.3 2.23-2.215 1.58-3.434 3.73-3.434 6.048 0 2.319 1.22 4.467 3.434 6.048 1.736 1.24 3.935 2.011 6.3 2.23v11.107c-3.888-.455-6.953-2.779-6.953-5.479a1.39 1.39 0 10-2.781 0c0 2.319 1.22 4.467 3.434 6.048 1.736 1.24 3.935 2.012 6.3 2.23v2.847a1.39 1.39 0 102.782 0v-2.847c2.365-.218 4.564-.99 6.3-2.23zm.653-6.048c0 2.7-3.065 5.024-6.953 5.48v-10.96c3.888.456 6.953 2.78 6.953 5.48zM36.156 37.547c0-2.7 3.065-5.024 6.953-5.48v10.96c-3.888-.456-6.953-2.78-6.953-5.48z" fill="#fff"/></svg>