<svg width="89" height="89" fill="none" xmlns="http://www.w3.org/2000/svg"><g clip-path="url(#clip0)" fill="#fff"><path d="M25.734 41.149H33.2a1.304 1.304 0 100-2.608h-7.467a1.304 1.304 0 100 2.608zm0 6.318h30.328a1.304 1.304 0 100-2.607H25.734a1.304 1.304 0 100 2.607zm30.328 3.711h-8.085a1.304 1.304 0 100 2.608h8.085a1.304 1.304 0 100-2.608z"/><path d="M85.328 8.753L68.453.319a3.056 3.056 0 00-2.72 0L48.858 8.753a3.025 3.025 0 00-1.682 2.721V13.9h-18.32a1.304 1.304 0 100 2.607h18.32v3.965c0 1.902.142 3.71.428 5.433h-21.87a1.304 1.304 0 100 2.607h22.428a25.503 25.503 0 001.296 3.711H25.734a1.304 1.304 0 100 2.608H50.79c.458.778.96 1.535 1.506 2.272.36.485.74.964 1.143 1.438H38.416a1.304 1.304 0 100 2.608h17.51c2.458 2.313 5.565 4.59 9.576 7.045a3.043 3.043 0 003.182 0l.395-.244v31.66h-34.11v-2.43a1.304 1.304 0 10-2.608 0v8.778c0 .24-.195.434-.434.434H5.032a.435.435 0 01-.435-.434V67.18c0-.24.195-.435.435-.435h26.895c.24 0 .434.195.434.435v3.916a1.304 1.304 0 102.608 0V67.18c0-.262-.037-.515-.1-.758h21.193a1.304 1.304 0 100-2.607H30.779v-3.711h25.283a1.304 1.304 0 100-2.608H30.725a12.2 12.2 0 00-.943-3.71h13.501a1.304 1.304 0 100-2.608h-15.03c-2.25-2.942-5.793-4.844-9.774-4.844a12.22 12.22 0 00-5.763 1.438V16.508h10.056a1.304 1.304 0 100-2.608h-10.49a2.175 2.175 0 00-2.173 2.173v33.56a12.266 12.266 0 00-3.93 9.001v5.504H5.032A3.046 3.046 0 001.99 67.18v18.778A3.046 3.046 0 005.032 89h26.895a3.046 3.046 0 003.042-3.042v-3.74h34.545a2.175 2.175 0 002.172-2.173v-33.77c4.641-3.105 7.854-6.004 10.203-9.172 3.446-4.647 5.12-10.087 5.12-16.63v-8.999a3.024 3.024 0 00-1.681-2.721zm-62.37 55.385h-8.956v-5.504a4.483 4.483 0 014.478-4.478 4.483 4.483 0 014.477 4.478v5.504zM8.786 58.634c0-5.344 4.348-9.693 9.693-9.693 5.344 0 9.692 4.349 9.692 9.693v5.504h-2.607v-5.504a7.093 7.093 0 00-7.085-7.085 7.093 7.093 0 00-7.086 7.085v5.504H8.787v-5.504zm75.616-38.161c0 12.528-6.536 19.044-17.08 25.497a.444.444 0 01-.46 0c-10.545-6.453-17.08-12.969-17.08-25.497v-8.999c0-.166.092-.315.24-.389L66.9 2.651a.436.436 0 01.388 0l16.875 8.434c.148.074.24.223.24.389v8.999z"/><path d="M67.015 9.062c-7.275 0-13.193 5.918-13.193 13.192 0 7.275 5.918 13.193 13.193 13.193a13.22 13.22 0 0012.428-8.763 1.304 1.304 0 00-2.456-.876 10.608 10.608 0 01-9.972 7.032c-5.837 0-10.586-4.749-10.586-10.586 0-5.837 4.749-10.585 10.586-10.585 5.139 0 9.52 3.668 10.418 8.721A1.304 1.304 0 1080 19.934 13.168 13.168 0 0067.015 9.062z"/><path d="M71.537 18.687L66.4 23.824l-2.987-2.987a1.304 1.304 0 10-1.844 1.843l3.909 3.91a1.304 1.304 0 001.844 0l6.058-6.06a1.304 1.304 0 10-1.843-1.843z"/></g><defs><clipPath id="clip0"><path fill="#fff" d="M0 0h89v89H0z"/></clipPath></defs></svg>