<svg width="78" height="78" fill="none" xmlns="http://www.w3.org/2000/svg"><path d="M23.103 33.548l-.003.05c-.192 3.366 1.694 6.52 4.805 8.031l.032.016a5.66 5.66 0 012.564 2.465l.012.024c1.568 2.985 4.81 4.794 8.268 4.613l.052-.003a6.02 6.02 0 013.559.925 9.023 9.023 0 009.57 0 6.02 6.02 0 013.559-.925l.052.003c3.451.183 6.698-1.628 8.27-4.618l.007-.017a5.671 5.671 0 012.571-2.47l.026-.013c3.111-1.512 4.998-4.665 4.805-8.032l-.003-.046a5.386 5.386 0 01.937-3.339 8.283 8.283 0 00.001-9.366 5.386 5.386 0 01-.938-3.337l.003-.05c.193-3.367-1.694-6.52-4.808-8.032l-.028-.014a5.655 5.655 0 01-2.56-2.457l-.016-.032c-1.569-2.986-4.816-4.795-8.267-4.614l-.053.003a6.016 6.016 0 01-3.558-.925 9.024 9.024 0 00-9.57 0 6.024 6.024 0 01-3.56.924l-.052-.002c-3.452-.183-6.698 1.628-8.266 4.612l-.012.022a5.664 5.664 0 01-2.566 2.47l-.03.013c-3.111 1.512-4.998 4.665-4.805 8.032l.003.047a5.383 5.383 0 01-.937 3.338 8.283 8.283 0 000 9.367 5.382 5.382 0 01.936 3.337zm1.454-11.055a8.303 8.303 0 001.447-5.15l-.003-.05a5.521 5.521 0 013.171-5.251l.025-.012A8.551 8.551 0 0033.07 8.3l.014-.027c1.042-1.984 3.224-3.186 5.541-3.063l.051.002a8.897 8.897 0 005.263-1.368 6.103 6.103 0 016.474 0 8.917 8.917 0 005.262 1.369l.051-.003c2.329-.122 4.5 1.08 5.539 3.058l.02.036a8.55 8.55 0 003.869 3.723l.024.012c2.053.999 3.3 3.06 3.174 5.253l-.002.052c-.1 1.83.41 3.64 1.447 5.15a5.363 5.363 0 01-.002 6.068 8.31 8.31 0 00-1.445 5.151l.002.05c.126 2.192-1.12 4.255-3.175 5.254l-.021.01a8.56 8.56 0 00-3.877 3.734l-.01.02c-1.043 1.985-3.221 3.188-5.542 3.064l-.05-.003a8.914 8.914 0 00-5.265 1.369 6.104 6.104 0 01-6.472 0 8.9 8.9 0 00-5.264-1.369l-.05.002a5.882 5.882 0 01-5.544-3.066l-.015-.027a8.54 8.54 0 00-3.866-3.722l-.027-.014c-2.054-.998-3.3-3.06-3.175-5.253l.003-.051a8.31 8.31 0 00-1.447-5.15 5.363 5.363 0 01.002-6.068z" fill="#fff"/><path d="M37.806 40.542c.68.424 1.576.217 2-.463l17.204-27.56a1.452 1.452 0 10-2.464-1.538l-17.203 27.56a1.452 1.452 0 00.463 2zM39.348 25.6c3.536 0 6.413-3.28 6.413-7.313 0-4.033-2.877-7.313-6.413-7.313-3.536 0-6.413 3.28-6.413 7.313 0 4.033 2.877 7.314 6.413 7.314zm0-11.722c1.935 0 3.51 1.978 3.51 4.409 0 2.43-1.575 4.409-3.51 4.409-1.935 0-3.509-1.979-3.509-4.41 0-2.43 1.574-4.408 3.509-4.408zm9.243 18.894c0 4.032 2.877 7.313 6.413 7.313 3.537 0 6.414-3.281 6.414-7.313 0-4.031-2.877-7.313-6.413-7.313-3.537 0-6.414 3.28-6.414 7.313zm9.923 0c0 2.43-1.575 4.408-3.51 4.408-1.934 0-3.508-1.977-3.508-4.408s1.574-4.409 3.508-4.409c1.935 0 3.51 1.977 3.51 4.409zm19.297 24.114a7.335 7.335 0 00-9.686-2.953l-11.376 5.375a9.267 9.267 0 00-7.9-4.873l-10.501-.29a11.101 11.101 0 01-4.773-1.232l-1.069-.554a18.848 18.848 0 00-17.458.019l.067-2.421a1.452 1.452 0 00-1.412-1.492l-11.516-.317a1.452 1.452 0 00-1.49 1.412L0 74.83c-.022.802.61 1.47 1.411 1.492l11.516.317h.04c.787 0 1.43-.627 1.452-1.413l.033-1.209 2.991-1.602a5.134 5.134 0 013.83-.419l17.865 5.014c.03.01.062.017.094.024a19.376 19.376 0 0012.021-1.362c.063-.028.123-.06.18-.097L77.336 58.82a1.452 1.452 0 00.475-1.935zM2.944 73.46l.615-22.367 8.613.237-.616 22.367-8.612-.237zm47.001-.38a16.46 16.46 0 01-10.069 1.12l-17.816-5a8.027 8.027 0 00-5.987.655l-1.528.818.41-14.871a15.962 15.962 0 0116.216-.865l1.068.553a14.019 14.019 0 006.03 1.557l10.501.29a6.368 6.368 0 016.054 5.075l-15.643-.43a1.452 1.452 0 10-.08 2.903l17.263.475h.042c.785 0 1.428-.627 1.45-1.412a9.27 9.27 0 00-.14-1.884l11.666-5.514.034-.016a4.436 4.436 0 015.017.702L49.945 73.078z" fill="#fff"/></svg>